<?xml version="1.0" encoding="UTF-8" standalone="no"?>
<svg
   xmlns:dc="http://purl.org/dc/elements/1.1/"
   xmlns:cc="http://creativecommons.org/ns#"
   xmlns:rdf="http://www.w3.org/1999/02/22-rdf-syntax-ns#"
   xmlns:svg="http://www.w3.org/2000/svg"
   xmlns="http://www.w3.org/2000/svg"
   xmlns:sodipodi="http://sodipodi.sourceforge.net/DTD/sodipodi-0.dtd"
   xmlns:inkscape="http://www.inkscape.org/namespaces/inkscape"
   version="1.0"
   width="733pt"
   height="460pt"
   viewBox="0 0 733 460"
   preserveAspectRatio="xMidYMid meet"
   id="svg100"
   sodipodi:docname="logo.svg"
   inkscape:version="1.0.1 (c497b03c, 2020-09-10)">
  <defs
     id="defs104" />
  <sodipodi:namedview
     pagecolor="#ffffff"
     bordercolor="#666666"
     borderopacity="1"
     objecttolerance="10"
     gridtolerance="10"
     guidetolerance="10"
     inkscape:pageopacity="0"
     inkscape:pageshadow="2"
     inkscape:window-width="1188"
     inkscape:window-height="687"
     id="namedview102"
     showgrid="false"
     inkscape:zoom="0.56485795"
     inkscape:cx="277.18586"
     inkscape:cy="411.04269"
     inkscape:window-x="50"
     inkscape:window-y="33"
     inkscape:window-maximized="0"
     inkscape:current-layer="svg100"
     inkscape:pagecheckerboard="true">
    <inkscape:grid
       type="xygrid"
       id="grid412" />
  </sodipodi:namedview>
  <metadata
     id="metadata76">
Created by potrace 1.16, written by Peter Selinger 2001-2019
<rdf:RDF>
  <cc:Work
     rdf:about="">
    <dc:format>image/svg+xml</dc:format>
    <dc:type
       rdf:resource="http://purl.org/dc/dcmitype/StillImage" />
    <dc:title></dc:title>
  </cc:Work>
</rdf:RDF>
</metadata>
  <rect
     style="fill:#ffffff;stroke-width:0.75"
     id="rect108"
     width="15.300546"
     height="22.440802"
     x="280.76389"
     y="549.76263" />
  <g
     transform="matrix(0.1,0,0,-0.1,2.9345084,530.56845)"
     fill="#000000"
     stroke="none"
     id="g98">
    <path
       d="m 3409,5253 c -7,-16 -15,-32 -17,-36 -2,-4 0,-7 5,-6 44,8 47,-47 3,-81 -16,-12 -27,-27 -24,-32 3,-4 2,-8 -3,-7 -21,4 -34,-2 -27,-13 4,-6 3,-8 -4,-4 -14,9 -63,-14 -55,-27 3,-6 1,-7 -5,-3 -13,8 -63,-14 -56,-25 3,-5 -2,-6 -10,-3 -9,3 -16,1 -16,-5 0,-6 -3,-10 -7,-9 -18,5 -53,-14 -47,-24 5,-7 1,-9 -9,-5 -10,3 -17,2 -17,-3 0,-6 -9,-10 -21,-10 -11,0 -18,-4 -15,-9 4,-5 -4,-7 -16,-3 -14,3 -19,1 -14,-6 5,-8 2,-10 -8,-6 -9,3 -16,1 -16,-5 0,-6 -3,-10 -7,-9 -15,4 -53,-14 -48,-22 3,-4 -5,-6 -17,-2 -14,3 -19,1 -14,-6 5,-8 2,-10 -8,-6 -9,3 -16,1 -16,-5 0,-6 -3,-10 -7,-10 -5,1 -10,0 -13,-1 -17,-6 -49,-12 -77,-13 -18,-1 -33,-6 -33,-11 0,-5 -3,-6 -6,-3 -4,4 1,17 9,31 12,18 13,26 4,30 -8,3 -6,10 7,20 19,16 19,16 1,30 -17,12 -20,10 -37,-23 -10,-20 -19,-53 -20,-74 -1,-20 -7,-42 -15,-48 -7,-6 -13,-18 -13,-27 0,-8 -7,-20 -16,-26 -10,-7 -13,-18 -8,-30 6,-17 10,-15 34,14 15,18 32,31 39,29 15,-5 -110,-134 -188,-193 -31,-24 -78,-55 -106,-68 -46,-24 -52,-24 -72,-11 -15,10 -23,11 -23,4 0,-6 4,-11 10,-11 5,0 7,-7 3,-16 -10,-27 -171,-94 -226,-94 -27,0 -29,-2 -25,-29 2,-17 2,-28 -2,-26 -3,2 -12,0 -20,-5 -12,-7 -11,-10 4,-16 9,-4 21,-17 26,-29 7,-18 19,-23 69,-29 33,-4 63,-11 66,-17 4,-5 11,-7 16,-3 5,3 16,1 23,-5 7,-6 21,-9 30,-5 12,5 16,0 16,-17 1,-21 2,-22 11,-6 5,9 15,17 20,17 6,0 7,-4 4,-10 -9,-14 7,-12 30,4 11,7 35,17 53,21 18,3 38,12 45,18 10,11 66,29 132,44 11,2 -51,-25 -139,-61 -87,-36 -161,-68 -164,-70 -2,-3 -4,-45 -3,-93 l 2,-88 -83,-43 c -46,-24 -98,-52 -116,-64 -47,-29 -168,-68 -213,-68 -38,0 -39,-1 -28,-22 9,-16 9,-23 0,-26 -16,-5 -14,-22 4,-22 8,0 12,-6 9,-14 -4,-11 0,-13 15,-9 12,3 21,9 21,13 0,4 17,11 38,14 20,4 65,17 99,29 46,16 65,19 73,11 9,-9 5,-10 -14,-7 -15,3 -26,1 -26,-6 0,-5 -7,-8 -15,-5 -8,4 -17,-1 -21,-9 -3,-9 -12,-13 -20,-10 -8,3 -20,0 -28,-6 -7,-6 -16,-8 -19,-5 -3,3 -12,2 -19,-2 -7,-5 -17,-9 -23,-9 -5,0 -11,-4 -12,-10 -1,-5 -10,-12 -20,-16 -10,-4 2,-7 30,-7 26,0 54,-5 61,-11 7,-6 16,-8 19,-4 4,3 13,1 20,-5 8,-7 16,-9 19,-6 3,3 36,-2 73,-11 37,-8 71,-13 75,-10 10,6 23,-12 27,-37 2,-11 -3,-18 -12,-18 -8,0 -15,-7 -15,-15 0,-8 -4,-15 -10,-15 -5,0 -10,-7 -10,-15 0,-8 -4,-15 -10,-15 -5,0 -10,-6 -10,-14 0,-7 -9,-16 -21,-19 -11,-3 -23,-15 -26,-26 -3,-12 -9,-21 -14,-21 -5,0 -9,-6 -9,-13 0,-12 -11,-18 -125,-67 -33,-14 -67,-30 -75,-35 -29,-19 -123,-54 -132,-49 -4,3 -8,1 -8,-4 0,-10 -86,-33 -131,-34 -19,-1 -28,-3 -21,-5 6,-3 12,-13 12,-23 0,-10 -6,-21 -12,-24 -9,-3 -8,-8 5,-16 15,-10 16,-14 5,-27 -12,-14 -10,-16 17,-10 25,6 28,5 14,-5 -13,-11 -8,-13 35,-12 28,0 56,-4 63,-9 7,-5 17,-6 23,-2 6,4 17,1 25,-5 8,-6 18,-9 22,-7 13,8 103,-13 103,-24 0,-5 -3,-9 -7,-9 -5,0 -7,-36 -5,-80 l 4,-80 -97,-46 c -112,-52 -95,-56 -218,48 -39,34 -74,63 -76,64 -1,2 -1,8 1,14 2,6 13,2 26,-11 25,-22 38,-20 29,5 -7,19 -69,37 -78,23 -4,-5 -11,-7 -15,-4 -5,2 -38,8 -74,11 -212,22 -332,55 -344,96 -2,9 -4,6 -5,-7 0,-12 7,-27 17,-32 9,-6 12,-11 7,-11 -6,0 -16,5 -23,12 -16,16 -34,-8 -51,-68 -7,-24 -17,-44 -22,-44 -5,0 -6,-7 -3,-15 4,-8 1,-15 -6,-15 -6,0 -9,-4 -6,-8 3,-5 -4,-15 -15,-22 -10,-8 -19,-20 -19,-27 0,-7 -16,-28 -35,-48 -20,-19 -32,-35 -28,-35 12,-1 -104,-49 -155,-65 -24,-8 -51,-11 -60,-7 -15,5 -15,4 -3,-12 13,-15 13,-19 0,-27 -12,-8 -11,-11 4,-20 9,-6 15,-14 12,-19 -7,-12 15,-17 63,-14 23,1 44,-1 47,-6 2,-4 20,-6 40,-4 19,1 37,-2 40,-6 3,-5 12,-7 19,-4 19,7 22,-10 18,-102 l -3,-82 -67,-28 c -37,-15 -96,-42 -132,-60 -73,-37 -262,-104 -291,-104 -10,0 -19,-6 -20,-12 0,-7 -5,-4 -10,7 l -9,20 3,-20 c 2,-16 9,-20 41,-18 36,2 163,49 271,99 28,12 68,25 90,28 22,3 65,8 95,12 30,3 63,8 74,10 10,2 51,6 90,10 68,6 184,44 216,69 8,7 31,20 50,30 19,10 46,27 59,39 l 23,21 -6,-22 c -4,-13 -4,-23 0,-23 16,0 74,42 69,51 -4,5 0,6 8,3 7,-2 25,-1 38,5 26,9 82,4 75,-8 -2,-3 10,-6 26,-6 36,0 50,-24 19,-32 -12,-3 -21,-9 -21,-13 0,-4 -18,-15 -39,-23 -44,-18 -64,-39 -29,-29 20,5 21,4 8,-9 -19,-18 -141,-79 -157,-79 -7,0 -12,-5 -10,-12 1,-7 -2,-13 -8,-13 -5,-1 -30,-5 -55,-9 -25,-5 -58,-10 -75,-12 -16,-1 -41,-5 -55,-7 -14,-3 -50,-8 -81,-12 -31,-3 -65,-7 -75,-9 -11,-2 -44,-7 -74,-11 -58,-7 -96,-13 -145,-21 -30,-5 -69,-10 -155,-19 -49,-6 -116,-15 -140,-20 -8,-2 -44,-4 -80,-4 -42,-1 -60,-4 -51,-10 24,-15 -8,-41 -37,-30 -15,6 -21,5 -17,-1 3,-6 13,-10 21,-10 8,0 14,-6 14,-12 0,-9 3,-9 9,1 12,19 51,22 51,4 0,-7 -7,-13 -15,-13 -8,0 -15,-4 -15,-10 0,-18 29,-10 35,10 3,11 14,20 23,20 15,0 15,-2 2,-11 -12,-9 -11,-9 5,-3 23,9 125,12 140,5 6,-3 17,-6 25,-6 8,0 15,-6 14,-12 -1,-7 -2,-40 -2,-73 -2,-47 -5,-60 -18,-60 -8,0 -13,4 -10,9 3,5 -4,11 -15,14 -20,5 -20,5 -3,-15 18,-19 18,-20 -1,-34 -23,-17 -41,-18 -51,-2 -5,7 -10,4 -15,-10 -5,-12 -13,-22 -20,-22 -6,0 -9,7 -5,15 3,8 1,15 -5,15 -6,0 -9,-9 -7,-20 2,-10 -1,-19 -5,-19 -4,0 -15,-7 -23,-16 -9,-8 -25,-15 -37,-15 -18,0 -19,-2 -7,-11 12,-8 9,-9 -13,-5 -18,4 -33,1 -42,-8 -21,-21 -18,-29 5,-16 11,6 20,7 20,2 0,-5 -11,-15 -25,-22 -14,-7 -25,-18 -25,-23 0,-6 8,-3 18,6 21,19 63,12 55,-9 -3,-8 0,-14 7,-14 6,0 8,-5 5,-10 -8,-14 32,-7 47,8 7,7 17,8 30,1 10,-5 18,-6 18,-1 0,5 12,10 26,9 28,0 19,-16 -12,-22 -11,-1 -18,-8 -17,-14 2,-6 -4,-11 -13,-11 -8,0 -12,5 -9,10 3,6 1,10 -5,10 -6,0 -8,-10 -4,-25 5,-20 2,-25 -11,-25 -10,0 -24,-8 -32,-18 -8,-9 -12,-11 -8,-5 4,8 1,11 -9,7 -13,-5 -13,-10 -4,-27 10,-20 10,-21 -5,-8 -10,7 -17,20 -17,28 0,8 -4,11 -10,8 -9,-6 14,-52 33,-66 11,-8 15,-89 5,-82 -5,2 -8,-3 -8,-12 0,-9 4,-14 9,-11 5,3 11,-2 13,-12 3,-11 0,-19 -8,-19 -7,0 -11,4 -8,9 3,4 0,8 -5,8 -10,0 -15,-16 -14,-47 0,-7 -2,-11 -6,-10 -3,1 -35,-30 -71,-68 -36,-39 -71,-74 -78,-78 -7,-4 -23,-29 -37,-55 -13,-26 -39,-63 -57,-83 -39,-43 -49,-58 -83,-122 -24,-44 -25,-52 -14,-85 12,-36 25,-52 43,-52 5,0 2,8 -7,18 -10,10 -17,24 -17,32 0,7 10,0 22,-16 12,-16 27,-33 33,-37 6,-6 4,-7 -6,-4 -8,3 -40,-10 -69,-29 -30,-19 -61,-34 -70,-34 -19,0 -25,-46 -8,-56 7,-5 9,0 6,14 -6,21 10,31 25,16 8,-8 -23,-55 -32,-50 -4,3 -7,-19 -8,-47 -1,-45 0,-48 7,-19 4,18 16,42 26,54 17,18 27,20 81,15 47,-5 64,-3 73,8 7,8 15,13 19,11 12,-8 44,62 37,79 -3,9 -15,19 -26,22 -24,6 -26,19 -4,27 9,3 14,13 10,21 -4,12 15,14 129,12 74,-1 136,1 137,4 2,3 59,9 128,11 69,3 119,3 113,1 -7,-3 -13,-13 -13,-24 0,-18 9,-19 168,-17 149,1 158,2 82,9 -47,4 -115,7 -152,8 -53,1 -68,4 -68,16 0,8 5,15 11,15 5,0 7,-4 4,-10 -4,-6 19,-10 62,-9 37,1 58,4 45,6 -19,4 -21,7 -11,19 17,20 39,17 39,-5 0,-16 9,-21 43,-25 65,-8 78,-5 72,15 -3,9 -1,20 5,24 5,3 10,1 10,-4 0,-6 9,-2 20,9 28,28 40,25 40,-9 0,-27 -3,-29 -30,-26 -17,2 -30,-1 -30,-7 0,-7 20,-8 61,-4 45,5 66,13 79,28 17,22 40,18 40,-8 0,-8 10,-15 23,-16 12,-1 -7,-4 -43,-8 l -65,-7 66,-1 c 70,-2 85,3 68,25 -9,10 -8,13 5,13 9,0 16,-7 16,-15 0,-8 9,-15 21,-15 11,0 17,-4 14,-10 -4,-7 17,-10 63,-9 60,1 70,4 65,18 -3,11 -2,12 4,4 5,-7 20,-12 33,-11 14,0 32,0 40,-1 13,-1 13,-2 0,-11 -10,-7 6,-10 56,-10 39,0 74,3 78,7 4,5 32,8 62,8 39,0 53,-3 49,-12 -6,-16 0,-16 28,-2 25,14 99,20 91,8 -3,-5 4,-9 15,-9 10,0 21,-5 23,-11 2,-6 60,-11 159,-12 86,-1 152,-5 145,-9 -6,-4 18,-7 54,-6 48,1 54,2 23,5 -24,2 -43,9 -43,14 0,6 9,7 21,4 13,-4 19,-3 16,2 -4,5 0,10 8,10 8,0 15,-4 15,-9 0,-4 10,-8 23,-8 12,0 31,-7 41,-15 14,-10 42,-15 90,-14 52,1 63,3 41,8 l -30,8 27,13 c 15,7 25,16 23,21 -12,19 17,18 37,-1 16,-15 18,-19 6,-15 -9,4 -25,2 -35,-4 -15,-9 -11,-11 22,-12 22,-1 61,-1 87,1 38,1 48,-2 57,-18 6,-12 11,-23 11,-25 0,-2 -52,-3 -116,-2 -63,2 -113,0 -109,-3 3,-3 52,-10 108,-14 314,-22 368,-27 377,-33 13,-8 180,-27 248,-28 30,0 57,4 60,9 9,11 42,15 167,17 75,2 115,-3 159,-17 51,-16 74,-18 175,-11 150,11 311,12 311,3 0,-5 36,-8 80,-8 45,0 80,4 80,10 0,5 7,7 15,4 8,-4 23,-3 33,1 9,4 88,6 174,6 86,-1 159,3 162,7 3,5 18,7 33,5 22,-4 25,-2 13,6 -8,6 -11,11 -6,11 5,0 3,6 -3,14 -9,11 -8,15 6,20 15,6 15,9 3,16 -8,5 -18,6 -22,4 -5,-3 -17,-2 -28,1 -15,5 -19,12 -14,30 5,22 4,23 -35,18 -33,-5 -41,-3 -41,10 0,14 5,15 26,7 35,-14 38,-13 19,7 -11,11 -15,26 -11,44 3,19 1,29 -10,33 -25,10 -34,7 -28,-8 3,-7 -1,-16 -9,-19 -22,-8 -57,3 -57,19 0,18 9,18 32,-3 10,-9 18,-11 18,-5 0,6 -5,14 -10,17 -6,3 -18,23 -28,44 -15,31 -16,39 -5,50 11,10 17,10 28,1 8,-6 24,-10 37,-7 22,4 22,4 -2,6 -14,1 -36,10 -50,21 -14,11 -31,20 -39,20 -11,0 -9,-4 5,-16 18,-14 17,-14 -6,-2 -14,7 -29,11 -34,10 -5,-2 -16,0 -25,3 -13,5 -14,7 -1,15 13,8 13,12 -2,27 -16,16 -18,16 -18,1 0,-19 -24,-17 -61,4 -44,25 -52,37 -41,61 6,12 11,16 11,10 1,-7 8,-13 17,-13 9,0 12,5 8,12 -5,8 -2,9 12,3 10,-4 29,-8 41,-9 22,-1 45,-16 24,-16 -8,0 -9,-5 -2,-18 14,-25 52,-64 58,-58 3,2 -7,17 -21,33 -30,32 -33,43 -10,43 15,0 15,2 -1,26 -16,25 -16,25 4,15 25,-14 54,-14 46,-1 -3,6 -1,10 4,10 6,0 11,-3 11,-7 0,-5 16,-8 35,-9 28,0 32,2 24,13 -7,7 -24,13 -40,13 -15,0 -31,5 -34,10 -3,6 1,10 9,10 21,0 20,9 -1,27 -16,13 -15,14 10,8 19,-4 26,-2 22,5 -3,5 -26,10 -51,10 -34,0 -44,4 -44,16 0,12 3,14 13,6 6,-6 33,-12 59,-14 26,-2 51,-8 55,-13 5,-4 2,-5 -4,-1 -14,8 -17,-3 -7,-27 4,-11 13,-13 32,-8 19,5 37,2 59,-11 30,-18 35,-31 20,-55 -4,-7 1,-14 13,-18 11,-3 29,-20 41,-37 l 22,-30 -33,7 c -23,5 -30,4 -26,-4 4,-6 22,-11 39,-11 24,0 28,-3 17,-10 -11,-7 -8,-10 16,-10 43,0 50,-11 14,-26 -16,-7 -30,-20 -30,-28 0,-9 -7,-12 -20,-9 -11,3 -17,10 -13,16 4,6 -2,8 -14,5 -12,-3 -27,-1 -34,4 -11,7 -9,8 6,6 12,-2 19,2 18,9 -2,7 7,13 20,13 21,1 22,1 3,15 -29,22 -49,18 -62,-10 -9,-19 -9,-27 2,-36 18,-15 18,-37 -1,-56 -12,-12 -13,-18 -4,-29 8,-10 8,-14 0,-14 -13,0 -15,-36 -2,-44 16,-10 32,43 20,66 -9,16 -8,19 3,13 34,-20 39,-28 26,-36 -9,-6 -7,-9 7,-9 11,0 26,-9 33,-20 12,-20 52,-28 52,-10 0,6 -11,10 -25,10 -14,0 -25,4 -25,9 0,6 12,6 32,0 18,-5 40,-9 48,-9 13,0 13,1 0,11 -12,8 -12,10 4,7 30,-5 32,-28 2,-28 -14,0 -26,-3 -26,-8 0,-4 -19,-13 -42,-20 -40,-13 -44,-12 -57,7 -7,12 -18,21 -24,21 -6,0 -7,-3 -4,-7 4,-3 1,-13 -6,-21 -10,-13 -9,-14 3,-7 8,4 12,5 8,0 -13,-14 13,-37 28,-24 7,6 32,12 56,13 24,2 54,8 66,15 21,11 24,10 29,-8 3,-14 13,-21 29,-21 13,0 24,-6 24,-13 0,-10 13,-13 54,-9 58,5 77,-8 55,-34 -12,-14 -14,-14 -25,0 -10,14 -13,14 -17,3 -3,-10 -15,-13 -31,-10 -15,3 -26,1 -26,-6 0,-6 -11,-11 -25,-11 -14,0 -24,3 -24,8 6,34 -10,41 -36,15 -14,-13 -18,-14 -25,-2 -7,11 -10,10 -15,-3 -4,-10 -15,-20 -26,-23 -23,-8 -25,-25 -3,-25 8,0 12,5 8,11 -4,8 0,9 15,4 11,-3 21,-3 21,2 0,4 35,8 77,9 43,0 165,3 272,5 l 194,4 2,24 c 1,12 -4,25 -12,28 -10,4 -11,9 -2,19 15,18 44,18 62,0 10,-10 27,-13 54,-9 23,3 49,1 59,-5 17,-10 17,-11 -10,-22 -16,-6 -43,-8 -60,-4 -23,4 -36,1 -46,-10 -7,-9 -11,-19 -8,-21 7,-8 79,-15 153,-16 39,0 156,-7 260,-15 105,-7 191,-10 193,-6 1,5 17,6 35,3 l 32,-5 -30,-7 c -18,-4 14,-7 75,-7 58,0 98,2 90,5 -8,3 -18,11 -22,17 -4,5 -42,12 -84,14 -46,2 -86,9 -98,18 -11,8 -15,14 -9,14 7,0 14,-4 17,-8 8,-14 76,-1 76,14 0,16 -16,19 -24,5 -3,-5 -22,-5 -42,-1 -50,12 -57,24 -9,16 22,-3 47,-2 55,4 13,8 12,13 -8,32 -21,21 -22,21 -16,3 l 7,-20 -23,20 c -20,17 -23,18 -17,3 4,-12 1,-18 -8,-18 -17,0 -24,39 -11,62 8,13 4,21 -15,37 -13,11 -30,20 -36,21 -12,0 -16,11 -10,27 1,5 4,7 7,7 3,-1 21,-5 40,-8 33,-7 34,-6 15,9 -13,11 -31,15 -51,12 -26,-5 -30,-2 -29,16 1,16 7,21 23,19 30,-4 118,-55 104,-60 -7,-2 -12,-13 -12,-24 0,-14 5,-18 15,-14 8,3 40,-7 71,-23 54,-27 94,-31 94,-9 0,5 -8,7 -19,3 -13,-4 -26,4 -45,29 -33,44 -34,57 0,25 16,-15 23,-18 19,-8 -10,27 25,31 69,8 23,-11 35,-15 29,-8 -20,21 -15,26 20,22 l 32,-4 -28,16 c -15,9 -33,13 -39,9 -6,-4 -8,-3 -4,4 3,5 0,13 -6,15 -8,3 -6,6 5,6 9,1 17,8 17,16 0,20 8,19 50,-6 32,-20 33,-23 15,-29 -20,-7 -20,-7 1,-14 11,-3 27,-22 34,-41 9,-23 20,-35 32,-35 11,0 17,-4 13,-9 -3,-6 13,-8 40,-6 27,2 43,0 39,-6 -13,-22 40,-48 99,-49 32,0 67,-4 77,-10 11,-6 28,-6 42,-1 21,8 19,10 -24,21 -25,7 -57,23 -69,36 -13,14 -35,24 -53,25 -17,1 -23,3 -13,6 22,6 12,23 -14,23 -11,0 -17,-5 -14,-10 9,-14 -8,-13 -23,2 -7,7 -15,8 -24,1 -7,-5 -24,-10 -38,-11 -17,-1 -20,2 -12,7 10,6 7,13 -14,30 -15,12 -25,23 -23,25 11,11 67,8 88,-3 13,-7 36,-11 52,-9 22,3 36,-2 54,-20 14,-14 25,-29 25,-33 0,-5 5,-9 12,-9 6,0 21,-8 32,-17 20,-17 20,-17 7,-1 -12,16 -11,18 3,18 23,0 10,19 -20,30 -31,12 -32,34 -1,24 12,-3 29,-13 38,-20 20,-18 35,-18 20,-1 -6,8 -8,17 -4,20 3,4 -1,7 -10,7 -20,0 -29,14 -21,33 5,13 9,13 32,1 42,-22 51,-16 13,7 -25,15 -31,23 -21,29 17,10 24,7 139,-57 53,-30 104,-64 113,-76 9,-12 19,-19 23,-15 8,8 -72,71 -110,87 -16,6 -41,20 -55,31 -21,16 -22,20 -7,20 10,0 16,4 13,9 -6,9 87,6 102,-3 6,-3 15,1 21,8 8,9 8,17 2,20 -5,3 -11,2 -13,-3 -1,-5 -13,-1 -26,9 -13,11 -18,21 -12,25 5,3 10,1 10,-4 0,-6 7,-11 15,-11 10,0 12,6 8,18 -6,15 -5,15 10,4 9,-8 20,-11 25,-8 6,3 12,-3 15,-14 3,-10 20,-26 38,-34 19,-8 27,-15 19,-15 -9,-1 -25,6 -36,14 -12,8 -24,12 -27,8 -10,-10 61,-43 78,-37 14,6 13,9 -5,29 l -20,22 42,1 c 35,2 47,-3 69,-28 l 27,-29 -29,6 c -17,3 -29,1 -29,-5 0,-16 26,-33 43,-26 9,3 31,-2 50,-11 40,-19 167,-22 167,-4 0,12 -29,19 -88,20 -31,1 -46,4 -34,6 l 24,5 -24,26 -23,25 36,-26 c 35,-27 69,-35 69,-18 0,13 -28,34 -37,28 -5,-3 -17,1 -28,9 -18,14 -18,14 3,14 19,0 21,2 10,19 -7,11 -16,17 -20,15 -4,-3 -8,0 -8,5 0,6 -10,11 -22,12 -13,0 -17,3 -10,6 18,7 4,23 -21,23 -17,0 -19,2 -8,9 12,8 12,14 -4,38 -18,29 -63,73 -74,73 -4,0 -24,17 -46,37 -21,21 -35,32 -30,24 5,-10 4,-12 -4,-7 -6,4 -9,11 -6,15 11,19 -69,101 -128,131 -38,19 -85,74 -93,108 -4,15 -16,36 -27,46 -26,26 -73,31 -81,10 -5,-13 -9,-14 -21,-4 -13,11 -15,8 -15,-19 0,-17 5,-31 10,-31 6,0 10,7 10,16 0,17 21,15 27,-3 9,-25 -58,-30 -297,-23 -135,4 -246,6 -248,5 -2,-2 6,-13 17,-24 15,-15 34,-21 69,-21 26,-1 67,-5 92,-10 25,-4 51,-5 58,-1 26,15 63,-2 88,-38 21,-32 22,-36 7,-42 -15,-5 -15,-6 1,-12 10,-4 27,-7 39,-7 12,-1 39,-7 60,-15 38,-13 38,-13 21,6 -13,15 -14,19 -3,19 8,0 1,9 -15,19 -17,11 -35,17 -40,14 -6,-4 -5,0 2,9 10,12 9,18 -3,28 -8,7 -16,9 -16,4 -1,-5 -2,-15 -3,-23 -2,-24 -20,-21 -43,8 l -22,28 94,2 c 78,1 95,-2 95,-14 0,-9 -6,-12 -15,-9 -29,11 -15,-15 17,-30 39,-20 44,-20 28,-1 -10,13 -9,15 12,15 25,0 108,-69 108,-89 0,-6 11,-13 25,-17 14,-4 25,-13 25,-23 0,-16 49,-61 67,-61 8,0 63,-51 63,-59 0,-3 -11,-7 -25,-7 -15,-1 -22,2 -18,9 3,6 1,7 -5,3 -6,-4 -21,-2 -32,4 -15,8 -20,8 -20,-2 -1,-8 -5,-7 -14,5 -15,19 -41,22 -52,5 -4,-6 -3,-8 3,-5 6,4 22,-2 34,-13 26,-21 11,-27 -24,-9 -22,12 -22,12 -3,-10 17,-18 17,-21 3,-21 -9,0 -14,-6 -12,-12 6,-14 -43,-17 -63,-4 -20,12 -13,28 9,21 l 21,-7 -21,21 c -12,12 -24,21 -28,21 -3,0 -15,8 -26,17 -12,10 -17,12 -12,4 6,-11 1,-13 -24,-9 -36,5 -42,-8 -8,-22 l 22,-9 h -22 c -28,-1 -54,9 -48,19 3,4 -2,11 -11,14 -27,11 -12,-34 19,-52 23,-14 29,-15 36,-3 12,19 49,5 86,-33 17,-18 41,-39 55,-49 13,-9 20,-17 14,-17 -6,0 -35,21 -64,46 -32,28 -56,41 -58,34 -2,-6 1,-17 7,-23 18,-18 13,-29 -8,-18 -10,6 -22,7 -26,3 -5,-4 -5,-2 -2,4 7,11 -10,32 -26,33 -4,0 -21,8 -39,17 -29,15 -30,15 -24,-1 5,-13 2,-16 -10,-11 -8,3 -18,6 -20,6 -2,0 -4,9 -4,20 0,12 -7,20 -16,20 -13,0 -14,-3 -5,-14 16,-19 33,-78 20,-71 -5,4 -9,4 -9,0 0,-10 56,-61 75,-69 10,-3 15,-9 12,-12 -3,-3 -14,-1 -24,4 -11,6 -25,7 -33,2 -8,-5 -21,-5 -29,-1 -19,10 -41,4 -41,-11 0,-5 9,-6 20,-3 13,4 31,0 47,-10 14,-9 22,-12 19,-6 -11,17 15,12 54,-9 33,-18 34,-19 9,-20 -14,0 -30,5 -35,10 -12,12 -44,3 -44,-12 0,-5 -5,-6 -10,-3 -6,4 -8,11 -5,16 3,5 0,6 -8,3 -8,-3 -18,-1 -22,5 -3,6 -20,11 -37,11 -25,0 -28,2 -19,14 14,17 0,29 -22,20 -19,-7 -29,-32 -20,-47 3,-7 -6,-1 -20,12 -16,15 -23,27 -17,31 6,4 2,14 -11,26 -22,19 -22,19 -14,-4 l 7,-23 -33,17 c -18,9 -40,23 -48,32 -14,13 -12,14 16,10 18,-2 30,-1 27,4 -3,4 -1,8 4,8 11,0 79,-26 103,-40 17,-9 29,-4 29,12 0,4 -12,8 -26,8 -19,0 -25,4 -22,17 2,11 -8,27 -26,41 -16,12 -25,22 -19,22 8,0 9,9 3,30 -5,17 -5,30 0,30 8,0 50,-35 122,-99 4,-3 -4,-7 -17,-7 -14,-1 -22,2 -19,7 3,5 0,9 -5,9 -17,0 -13,-14 9,-33 25,-21 36,-21 48,-1 7,12 -5,30 -50,75 -32,32 -65,59 -73,59 -8,0 -15,4 -15,9 0,5 -7,12 -16,15 -9,4 -13,2 -8,-5 4,-8 -1,-9 -16,-4 -17,6 -21,4 -15,-6 5,-8 -1,-6 -13,5 -18,16 -24,17 -37,6 -14,-11 -12,-15 16,-32 22,-13 30,-24 26,-38 -3,-10 -1,-21 4,-24 5,-2 4,-3 -3,-2 -7,2 -12,10 -10,20 2,9 -4,16 -11,16 -8,0 -20,7 -27,15 -14,17 -35,21 -25,5 9,-15 -36,-11 -65,5 -32,19 -44,19 -36,0 8,-22 -10,-18 -38,9 -32,29 -32,34 -3,38 20,3 20,4 -5,9 -24,5 -26,4 -22,-25 4,-40 48,-79 77,-71 18,5 19,4 7,-5 -13,-9 -13,-12 3,-24 23,-18 22,-22 -5,-21 -28,0 -50,13 -43,25 3,5 -3,14 -14,19 -29,16 -32,14 -21,-15 10,-26 10,-26 -22,-20 -17,3 -34,10 -38,14 -3,4 -14,12 -25,18 -18,10 -53,66 -55,87 0,4 9,3 20,-3 11,-6 18,-15 15,-21 -4,-5 2,-9 12,-9 11,0 24,-5 31,-12 6,-6 14,-9 18,-6 6,7 -64,55 -110,76 -35,15 -47,8 -20,-14 10,-8 14,-13 7,-10 -6,4 -14,2 -17,-3 -3,-5 2,-12 11,-15 12,-5 13,-10 5,-18 -8,-8 -18,-5 -38,11 -16,12 -41,21 -63,21 -21,0 -31,4 -24,8 10,6 7,18 -9,51 -11,23 -27,45 -34,48 -7,2 -10,11 -8,18 3,8 -4,20 -15,27 -12,7 -21,21 -21,31 0,10 -5,27 -11,38 -9,18 -8,19 17,13 16,-4 46,-20 68,-35 28,-20 48,-27 64,-23 27,8 29,20 4,26 -29,8 -22,36 10,44 35,7 31,14 -13,23 -18,4 -33,13 -34,22 -2,13 4,15 39,8 56,-11 72,-11 60,0 -5,5 -30,13 -55,18 -40,9 -48,8 -58,-9 -6,-10 -9,-23 -6,-28 4,-6 -6,-10 -20,-10 -14,0 -24,4 -21,9 5,8 -42,36 -56,33 -5,-1 -8,3 -8,8 0,6 -7,10 -15,10 -8,0 -15,4 -15,9 0,5 -8,12 -18,16 -16,5 -25,16 -50,67 -2,4 10,3 27,-3 17,-6 31,-17 31,-24 0,-7 15,-22 33,-34 17,-11 42,-29 55,-41 12,-12 28,-20 35,-17 6,2 -14,21 -46,42 -31,21 -57,42 -57,48 0,7 34,7 98,2 53,-4 122,-9 152,-11 30,-3 62,-7 70,-11 8,-3 31,-5 51,-4 25,2 38,-2 43,-14 8,-22 -19,-30 -51,-16 -14,6 -28,9 -31,7 -3,-3 6,-10 19,-16 21,-9 18,-10 -16,-6 -22,2 -52,6 -67,9 -19,3 -25,0 -21,-9 3,-8 17,-15 32,-16 70,-4 82,-6 105,-21 14,-10 35,-16 48,-14 14,1 22,-3 21,-10 -2,-8 7,-13 21,-13 18,0 23,5 21,17 -2,10 -4,22 -4,27 -1,4 -17,6 -36,4 -19,-2 -32,-2 -30,1 3,2 0,10 -6,17 -9,11 -7,15 5,20 14,5 11,13 -18,48 l -34,42 44,27 c 55,33 72,34 80,3 4,-16 11,-23 20,-19 8,3 14,0 14,-6 0,-7 13,-9 39,-5 24,4 41,2 45,-5 4,-6 18,-11 31,-11 13,0 25,-5 27,-11 4,-13 156,-17 166,-4 4,6 36,11 72,13 35,2 66,5 68,7 2,2 4,20 5,39 1,35 2,36 43,36 28,0 44,-5 48,-15 3,-9 0,-15 -10,-15 -10,0 -14,-6 -10,-15 3,-8 2,-15 -2,-15 -5,0 -16,-6 -25,-13 -15,-11 -14,-12 13,-12 16,0 31,3 31,8 1,4 2,13 3,20 1,7 21,13 55,15 30,2 64,10 75,18 11,8 30,14 41,15 19,0 18,1 -2,9 -13,5 -23,14 -23,20 0,6 5,8 11,5 15,-10 69,15 69,31 0,8 5,14 10,14 15,0 12,-11 -7,-32 -21,-24 -5,-23 27,2 14,11 31,20 38,20 25,0 11,20 -15,22 -16,1 -37,2 -48,3 -13,0 -19,7 -17,19 2,11 -1,15 -7,11 -7,-3 -8,0 -5,10 13,34 -12,42 -131,43 -79,0 -113,-3 -109,-10 4,-7 2,-8 -5,-4 -6,4 -9,12 -6,17 4,5 2,9 -3,9 -13,0 -8,78 6,92 6,6 55,11 116,11 58,0 103,3 101,7 -6,9 20,20 43,19 11,-1 8,-4 -8,-10 -18,-6 -11,-7 25,-3 61,6 90,34 81,77 -4,17 -2,26 4,22 6,-3 10,1 10,9 0,9 -5,16 -11,16 -7,0 -8,11 -4,31 6,24 4,30 -5,24 -9,-5 -11,-4 -6,4 4,6 1,25 -8,41 -14,28 -13,30 5,30 13,0 18,4 13,12 -5,8 -2,9 10,5 10,-4 35,-3 55,2 20,5 48,12 64,15 46,11 30,24 -45,36 -40,7 -88,16 -105,20 -20,5 -35,4 -39,-1 -3,-6 -21,-8 -39,-5 -19,3 -36,2 -39,-2 -3,-5 -60,-9 -128,-9 -131,0 -228,-10 -228,-22 0,-5 62,-26 138,-49 242,-72 279,-81 291,-69 6,6 13,8 17,5 3,-4 -4,-11 -15,-17 -16,-9 -36,-8 -83,4 -173,44 -854,267 -872,285 -7,7 -3,10 10,10 18,1 18,2 -3,19 -27,22 -29,37 -8,57 10,11 25,13 44,9 17,-4 32,-2 36,5 4,7 19,9 36,5 18,-4 29,-3 29,4 0,7 29,11 78,12 42,0 71,3 64,6 -22,9 -2,23 24,17 14,-4 24,-2 24,5 0,6 -4,11 -10,11 -20,0 -9,19 13,23 l 22,4 -22,9 c -21,9 -22,11 -8,38 13,25 13,27 0,16 -18,-15 -87,-7 -198,22 -66,17 -77,23 -72,38 5,17 2,17 -28,8 -47,-14 -113,6 -263,82 -204,102 -314,166 -314,181 0,14 12,11 45,-11 36,-24 45,-25 45,-5 0,21 -41,35 -99,35 -42,0 -159,15 -277,35 l -39,7 54,-35 c 29,-20 71,-39 94,-42 38,-7 54,-9 142,-19 24,-3 85,-30 150,-67 61,-34 182,-97 270,-141 139,-69 168,-80 220,-83 51,-2 79,-7 160,-30 6,-1 25,-6 43,-10 18,-4 35,-12 38,-17 14,-22 -453,32 -590,67 -31,8 -59,15 -61,15 -3,0 -5,4 -5,9 0,5 12,11 28,13 20,2 27,9 28,27 1,13 6,26 12,30 5,3 -20,7 -56,8 -37,0 -84,8 -105,17 -37,16 -38,16 -35,-1 2,-10 19,-23 38,-30 23,-8 28,-12 14,-12 -24,-1 -104,55 -104,73 0,7 -21,22 -47,35 -120,58 -302,167 -298,178 2,7 -13,22 -34,33 -22,11 -41,25 -44,32 -3,7 -6,3 -6,-9 -1,-13 -11,-33 -23,-45 -12,-12 -23,-35 -25,-52 -6,-60 -7,-66 -18,-66 -5,0 -16,-12 -22,-28 -7,-15 -36,-50 -65,-78 l -53,-51 -75,12 c -89,15 -120,24 -120,36 0,5 -6,9 -14,9 -17,0 -25,33 -29,117 -1,35 -5,63 -9,63 -5,0 -8,7 -8,15 0,8 9,15 19,15 11,0 23,5 26,10 4,6 16,8 26,5 11,-4 26,-1 34,5 8,6 23,9 35,5 11,-3 20,-2 20,4 0,5 37,13 83,17 45,5 71,10 58,12 -19,3 -21,6 -10,13 9,6 -2,8 -33,6 -27,-2 -48,1 -48,5 0,5 -8,8 -17,6 -10,-1 -24,1 -31,6 -7,4 -19,3 -26,-3 -10,-9 -15,-8 -20,5 -5,14 -9,14 -23,3 -14,-12 -16,-12 -8,0 6,11 2,13 -19,9 -14,-3 -26,-1 -26,5 0,5 -9,7 -20,4 -11,-3 -20,-1 -20,5 0,6 -9,8 -20,5 -11,-3 -20,-1 -20,5 0,6 -9,8 -20,5 -11,-3 -20,-1 -20,4 0,11 12,11 70,-1 25,-6 106,-21 180,-34 74,-13 142,-25 150,-28 8,-3 12,-3 8,-1 -15,9 -7,30 15,41 17,8 18,11 5,11 -12,1 -18,9 -18,26 0,23 -3,25 -51,25 -63,0 -275,42 -384,77 -44,14 -108,34 -143,45 -34,11 -60,23 -58,26 7,13 -14,52 -28,52 -8,0 -18,9 -21,20 -4,12 -15,20 -28,20 -28,0 -77,-45 -77,-70 0,-11 -4,-20 -10,-20 -5,0 -12,-11 -16,-24 -4,-16 -12,-24 -25,-23 -17,1 -18,3 -2,26 8,13 24,39 35,57 10,18 25,35 33,38 10,3 15,19 15,43 0,47 11,66 33,57 10,-4 17,-1 17,6 0,7 7,10 16,6 9,-3 27,-9 40,-12 21,-6 24,-3 24,25 0,27 -5,33 -50,52 -38,16 -57,32 -79,69 -39,63 -75,87 -167,110 -87,22 -122,25 -144,9 -12,-8 -11,-9 6,-4 26,7 156,-21 199,-42 39,-20 93,-71 112,-106 8,-17 32,-37 59,-48 56,-25 61,-53 7,-43 -21,3 -41,9 -44,13 -3,3 -30,35 -60,71 -29,36 -58,68 -64,72 -15,12 -53,9 -75,-4 -17,-11 -24,-8 -54,21 -28,27 -40,32 -61,27 -35,-9 -107,-80 -99,-99 3,-10 42,-22 112,-36 130,-27 162,-39 156,-56 -3,-7 3,-15 13,-18 15,-4 15,-5 -3,-6 -12,0 -92,15 -180,34 -87,19 -160,35 -161,35 -2,0 5,8 15,18 9,11 20,17 24,15 4,-2 9,1 13,6 3,6 -11,13 -32,16 -58,10 -63,13 -63,35 0,17 5,20 33,16 19,-2 40,0 48,5 9,6 -4,9 -39,9 -33,0 -51,4 -47,10 3,6 26,10 50,10 34,0 51,7 84,34 51,43 84,50 157,37 86,-16 156,-52 195,-101 54,-68 78,-88 125,-106 38,-14 48,-15 69,-4 14,7 28,10 32,7 3,-4 13,-1 22,7 9,8 43,19 76,24 39,6 49,10 28,11 -17,0 -35,6 -38,11 -4,6 -15,8 -26,5 -11,-4 -19,-2 -19,5 0,7 -7,9 -17,6 -9,-4 -20,-1 -24,6 -6,9 -11,9 -23,-2 -14,-11 -16,-10 -10,4 5,12 15,15 38,12 17,-3 54,-8 81,-12 28,-3 58,-10 68,-16 16,-8 18,-7 12,11 -5,16 -2,21 12,21 16,1 16,2 2,13 -9,7 -15,21 -14,32 1,17 -6,20 -53,22 -60,3 -190,45 -338,110 l -101,45 -7,51 c -3,29 -6,73 -6,98 v 46 l -137,36 c -76,20 -244,66 -373,102 -231,64 -265,69 -310,44 -38,-21 -164,-69 -179,-68 -9,0 -2,5 14,11 17,6 35,17 40,24 6,8 21,15 34,17 14,2 27,9 29,15 2,6 10,8 18,5 8,-3 14,0 14,6 0,6 7,11 15,11 8,0 15,5 15,10 0,6 9,10 20,10 11,0 25,9 32,20 7,11 17,20 23,20 10,0 85,-22 350,-106 83,-26 157,-48 165,-49 8,-1 24,-2 35,-3 17,-2 18,-4 5,-12 -9,-6 -10,-10 -3,-10 6,0 15,4 18,10 4,6 16,5 33,-4 37,-18 129,-29 137,-16 3,5 15,10 26,10 11,0 27,7 35,15 9,8 24,15 34,15 10,0 22,5 25,10 3,6 25,11 48,11 33,2 36,3 13,6 -23,4 -26,7 -15,15 10,7 7,8 -13,5 -16,-2 -28,0 -28,6 0,5 18,7 45,3 36,-6 45,-4 45,7 0,8 7,17 15,21 19,7 19,26 0,26 -8,0 -14,3 -14,8 5,33 -2,37 -74,38 -75,1 -257,40 -257,55 0,5 -5,9 -10,9 -6,0 -22,11 -35,25 -14,13 -25,29 -25,35 0,5 -4,10 -10,10 -5,0 -10,7 -10,16 0,8 -4,12 -10,9 -5,-3 -10,1 -10,9 0,9 -4,16 -10,16 -5,0 -10,7 -10,15 0,8 -4,15 -10,15 -5,0 -10,7 -10,15 0,8 -4,15 -10,15 -5,0 -10,7 -10,15 0,8 -4,15 -10,15 -5,0 -10,7 -10,15 0,8 -4,15 -10,15 -5,0 -10,7 -10,15 0,8 -4,15 -10,15 -5,0 -10,7 -10,15 0,8 -4,15 -9,15 -8,0 -24,37 -22,53 1,4 -4,7 -9,7 -5,0 -10,9 -10,20 0,11 -5,20 -11,20 -6,0 -9,6 -6,14 3,8 3,17 -1,21 -4,4 -7,11 -7,16 0,5 -4,8 -10,7 -5,-1 -12,11 -15,28 -4,20 -11,29 -25,29 -14,0 -20,7 -20,25 -3,59 -6,69 -26,75 -12,4 -18,12 -15,21 10,26 -11,14 -25,-13 z m 21,-183 c 0,-12 -71,-92 -132,-149 -40,-36 -50,-42 -63,-31 -10,9 -15,9 -15,1 0,-6 0,-14 -1,-18 -1,-18 -36,-45 -90,-72 -51,-26 -60,-27 -78,-15 -18,13 -19,12 -17,-13 2,-16 -1,-34 -6,-40 -8,-10 -4,-13 16,-13 14,0 26,-5 26,-11 0,-6 -7,-9 -15,-5 -8,3 -15,1 -15,-4 0,-6 -7,-10 -15,-10 -8,0 -15,-4 -15,-9 0,-4 -20,-14 -45,-21 -25,-7 -45,-16 -45,-20 0,-8 -39,-23 -52,-21 -5,1 -8,-3 -8,-8 0,-5 -13,-12 -30,-16 -16,-4 -30,-11 -30,-17 0,-6 -7,-8 -15,-4 -8,3 -15,1 -15,-4 0,-4 -13,-11 -30,-15 -16,-4 -30,-11 -30,-16 0,-5 -3,-8 -7,-7 -5,0 -25,-6 -45,-15 -21,-10 -42,-17 -48,-17 -5,0 -10,-4 -10,-10 0,-5 -7,-7 -15,-4 -8,4 -15,1 -15,-5 0,-5 -18,-16 -40,-22 -22,-7 -40,-16 -40,-21 0,-5 -4,-7 -9,-3 -5,3 -12,1 -16,-5 -4,-6 -11,-8 -16,-5 -5,4 -9,2 -9,-4 0,-9 -56,-27 -72,-23 -5,1 -8,-3 -8,-8 0,-5 -3,-9 -7,-8 -5,1 -18,-3 -29,-9 -12,-7 -36,-15 -54,-18 -18,-3 -36,-8 -40,-10 -4,-2 -22,-7 -41,-10 -25,-4 -30,-3 -19,5 8,5 21,10 28,10 7,0 51,18 98,40 47,22 94,40 103,40 27,0 184,115 267,195 84,82 121,105 249,161 17,7 50,22 75,32 25,11 89,41 142,66 114,54 151,70 160,68 4,-1 33,27 65,63 56,63 73,76 73,55 z m 125,-82 c 54,-113 152,-258 232,-341 25,-26 42,-51 38,-55 -4,-4 -10,-1 -12,6 -3,6 -10,9 -16,5 -7,-3 -9,-3 -5,2 4,4 -19,38 -51,76 -69,82 -159,214 -193,283 -15,28 -28,44 -32,38 -4,-6 11,-41 34,-78 22,-36 40,-68 40,-71 0,-11 69,-104 122,-164 32,-36 58,-68 58,-71 0,-2 -7,-5 -15,-5 -8,0 -15,4 -15,9 0,5 -6,6 -12,2 -7,-4 -10,-4 -6,1 7,8 -108,155 -151,192 -17,15 -29,19 -35,13 -16,-16 -24,-12 -39,15 l -13,26 -69,-51 c -39,-28 -73,-57 -77,-63 -5,-8 -8,-6 -8,5 0,10 -5,15 -13,12 -8,-3 -14,2 -14,11 0,8 3,15 7,15 7,0 37,22 86,64 52,43 52,24 0,-25 -26,-23 -44,-45 -41,-48 8,-7 115,108 115,123 0,6 -7,3 -14,-6 -7,-10 -16,-15 -19,-12 -3,3 9,22 26,41 17,19 37,47 44,64 6,16 16,29 20,29 4,0 17,-19 28,-42 z m -25,-787 c 171,-44 314,-82 317,-84 9,-9 -57,-19 -86,-12 -17,3 -32,2 -36,-4 -4,-7 5,-11 24,-11 33,0 39,-8 19,-28 -13,-13 -32,-17 -25,-4 3,4 -9,7 -26,8 -54,1 -137,23 -137,36 0,5 6,6 13,2 8,-5 8,-2 -2,9 -9,11 -9,17 -2,17 6,0 16,-9 23,-20 12,-18 14,-18 31,-3 17,16 17,16 11,-3 -7,-17 -6,-18 10,-5 14,12 15,16 3,22 -27,16 -228,61 -235,54 -3,-3 0,-5 6,-5 9,0 9,-5 0,-20 -15,-23 -30,-27 -22,-5 4,8 1,15 -5,15 -6,0 -11,-6 -11,-12 0,-10 -3,-9 -9,1 -5,7 -14,10 -20,7 -6,-4 -11,-2 -11,4 0,6 8,10 18,8 20,-3 42,9 42,23 0,5 -6,9 -12,7 -7,-1 -33,8 -58,20 -24,12 -39,17 -32,10 23,-23 12,-27 -33,-10 -25,9 -43,22 -41,28 3,7 -5,9 -20,6 -19,-3 -23,-1 -18,12 3,9 7,16 9,16 1,0 143,-36 315,-79 z m -556,-53 c -5,-8 -2,-9 9,-5 10,4 24,10 32,13 8,3 15,1 15,-5 0,-6 -4,-11 -9,-11 -5,0 -22,-5 -38,-12 -15,-6 -31,-12 -35,-13 -5,-2 -10,-4 -13,-5 -3,-1 -8,-3 -12,-5 -5,-1 -21,-7 -36,-13 -16,-7 -33,-12 -38,-12 -5,0 -9,-4 -9,-10 0,-5 -3,-9 -7,-9 -5,1 -11,0 -15,-1 -5,-1 -11,-3 -15,-5 -5,-1 -20,-6 -34,-12 -14,-6 -44,-17 -67,-24 -23,-7 -42,-16 -42,-21 0,-5 -4,-7 -9,-4 -5,3 -34,-3 -65,-14 -31,-10 -56,-15 -56,-9 0,5 -8,10 -17,10 -17,1 -17,2 0,6 9,2 15,8 13,11 -2,4 8,8 22,9 15,0 28,6 30,12 2,5 10,7 19,4 11,-4 14,-2 9,5 -4,7 -2,10 7,6 8,-3 38,4 68,15 64,25 62,24 54,9 -4,-7 0,-5 8,5 16,19 213,94 202,77 -3,-5 -2,-10 3,-10 6,0 12,7 16,15 3,8 8,15 11,15 4,0 3,-5 -1,-12 z m 1009,-70 c 67,-34 76,-38 92,-38 9,0 18,-6 21,-14 3,-8 13,-15 22,-14 26,0 93,-27 102,-42 4,-6 27,-16 51,-21 24,-5 76,-18 114,-28 56,-16 63,-20 35,-20 -71,1 -288,45 -345,71 -24,11 -25,12 -8,31 10,11 12,17 6,13 -7,-4 -13,-3 -13,2 0,5 -8,9 -17,8 -32,-1 -97,26 -120,50 -21,23 -21,24 -2,24 11,0 39,-10 62,-22 z m -806,-426 c -9,-2 -17,-7 -17,-12 0,-5 -13,-11 -30,-15 -16,-4 -30,-11 -30,-17 0,-6 -7,-8 -15,-5 -8,4 -17,2 -20,-2 -2,-5 -16,-12 -29,-15 -14,-3 -35,-10 -48,-15 -13,-5 -26,-8 -29,-7 -3,0 -13,-5 -22,-13 -10,-7 -17,-10 -17,-6 0,4 -7,2 -15,-5 -8,-6 -19,-9 -25,-5 -5,3 -10,1 -10,-4 0,-6 -7,-11 -15,-11 -8,0 -15,-5 -15,-11 0,-7 -10,-9 -25,-7 -14,3 -25,1 -25,-4 0,-6 -7,-8 -15,-4 -8,3 -15,2 -15,-3 0,-4 -14,-8 -32,-9 -17,0 -34,-4 -37,-9 -3,-4 -17,-9 -31,-11 -14,-1 -27,-7 -28,-12 -2,-6 -7,-8 -12,-5 -4,2 -46,-9 -94,-25 -47,-16 -86,-26 -86,-23 0,3 -7,0 -15,-7 -8,-7 -15,-9 -15,-5 0,4 -7,2 -15,-5 -8,-7 -15,-10 -15,-7 0,3 -31,-5 -70,-18 -38,-13 -70,-21 -70,-18 0,3 -6,0 -13,-6 -8,-6 -17,-8 -20,-4 -4,3 -7,1 -7,-6 0,-7 -4,-10 -9,-7 -5,3 -28,-1 -52,-10 -24,-9 -52,-16 -61,-16 -10,0 -18,-4 -18,-10 0,-6 -3,-9 -6,-5 -3,3 -29,-3 -58,-13 -28,-11 -66,-22 -85,-25 -19,-3 -38,-8 -43,-11 -7,-5 -23,-9 -73,-18 -119,-22 -138,-18 -47,10 31,9 61,21 67,26 5,4 15,8 23,8 8,0 30,7 50,16 82,36 145,54 185,54 15,0 51,9 80,20 30,11 76,27 103,34 27,8 119,35 204,60 85,26 209,63 275,82 166,49 206,65 315,122 91,48 95,49 119,33 21,-13 22,-16 8,-19 z m 1063,-264 c 105,-190 166,-272 319,-430 47,-49 81,-88 77,-88 -5,0 -40,28 -79,63 -83,73 -202,213 -266,313 -75,117 -72,113 -59,79 15,-36 110,-188 145,-230 14,-16 69,-74 122,-129 90,-92 99,-99 141,-102 25,-2 57,-6 73,-10 17,-4 27,-2 27,5 0,6 9,11 20,11 11,0 20,-4 20,-10 0,-5 5,-10 11,-10 5,0 7,5 3,11 -4,8 3,9 27,4 52,-12 111,-41 149,-75 l 35,-31 -35,6 c -19,3 -53,8 -75,10 -22,2 -62,9 -90,15 -27,6 -128,22 -222,35 -95,14 -192,29 -215,34 -24,5 -61,12 -83,15 -22,4 -65,11 -95,16 -94,16 -106,18 -184,30 -42,6 -86,8 -97,5 -15,-5 -19,-4 -15,4 4,6 1,12 -6,12 -7,1 -22,3 -33,4 -11,2 -38,6 -60,9 -40,6 -189,34 -322,60 -88,18 -122,34 -102,48 11,7 11,11 2,15 -7,2 -13,9 -13,13 0,5 16,2 36,-6 20,-8 43,-13 51,-10 8,3 11,1 8,-4 -9,-14 9,-12 24,3 10,10 15,9 24,-4 7,-9 18,-14 26,-11 8,3 11,0 7,-7 -4,-6 -3,-11 3,-11 5,0 12,4 15,9 3,5 15,7 27,4 16,-4 17,-8 7,-14 -9,-6 -9,-9 -1,-9 19,0 27,21 12,31 -11,7 -9,9 6,10 11,1 25,3 31,3 6,1 22,9 35,19 23,18 23,18 -6,1 l -30,-17 18,21 c 13,14 30,20 55,19 23,-1 36,3 35,11 -2,6 15,26 37,43 22,18 37,36 34,41 -3,4 3,11 13,15 19,6 53,38 53,48 0,12 83,84 91,79 5,-3 9,4 9,15 0,12 5,21 11,21 5,0 8,4 5,9 -3,4 3,16 14,26 15,14 20,15 20,4 0,-8 6,-4 16,9 8,12 23,22 32,21 10,0 12,-3 5,-6 -21,-8 -15,-23 10,-24 20,-1 20,-2 2,-6 -45,-10 -51,-16 -25,-23 l 25,-8 -27,-1 c -35,-1 -36,-17 -3,-24 27,-5 28,-4 78,96 11,20 23,37 27,37 5,0 36,-50 70,-112 z m -963,-348 c -2,-8 -10,-14 -20,-12 -9,2 -17,-2 -17,-9 0,-6 -7,-9 -15,-5 -8,3 -15,1 -15,-5 0,-6 -7,-9 -15,-6 -8,4 -17,2 -21,-4 -3,-6 -12,-8 -20,-5 -8,3 -14,1 -14,-5 0,-6 -7,-9 -15,-6 -8,4 -17,2 -21,-4 -3,-6 -12,-8 -20,-5 -8,3 -14,1 -14,-5 0,-6 -7,-9 -15,-6 -8,4 -17,2 -20,-3 -3,-5 -12,-7 -20,-3 -8,3 -15,0 -15,-6 0,-6 -6,-8 -14,-5 -8,3 -17,0 -21,-5 -3,-6 -10,-9 -15,-6 -4,3 -27,-2 -50,-10 -23,-8 -46,-13 -50,-10 -5,3 -11,1 -15,-4 -3,-6 -12,-8 -20,-4 -8,3 -15,1 -15,-4 0,-5 -8,-9 -17,-10 -37,-2 -91,-13 -117,-23 -15,-5 -30,-9 -34,-9 -4,1 -9,0 -12,-1 -9,-3 -44,-10 -76,-15 -17,-2 -44,-9 -59,-15 -15,-6 -42,-13 -59,-15 -36,-5 -71,-13 -71,-15 0,-3 -41,-11 -62,-12 -13,0 -23,-4 -23,-9 0,-4 -8,-7 -17,-7 -20,1 -83,-11 -93,-17 -6,-4 -20,-7 -92,-20 -15,-3 -37,-9 -50,-14 -13,-4 -33,-7 -45,-6 -13,1 -23,-2 -23,-7 0,-5 -4,-7 -8,-4 -4,3 -28,0 -53,-5 -54,-13 -76,-18 -109,-24 -14,-3 -40,-9 -59,-15 -19,-5 -37,-8 -39,-5 -3,2 -12,0 -21,-4 -9,-5 -34,-11 -56,-15 -22,-3 -51,-8 -65,-11 -44,-9 -155,-17 -149,-11 4,4 16,8 28,11 11,2 27,7 34,12 6,4 14,8 17,8 13,1 107,40 128,53 12,8 22,11 22,7 0,-5 8,0 19,9 10,9 22,16 27,14 5,-1 19,3 32,10 12,7 22,10 22,6 0,-4 9,1 20,11 11,10 20,16 20,13 0,-3 15,-2 34,2 22,5 39,3 47,-4 9,-8 10,-8 5,2 -4,7 -1,12 7,12 18,0 30,-26 14,-27 -22,-1 -69,-12 -75,-18 -10,-9 21,-5 98,14 58,14 74,22 72,34 -3,15 14,24 59,30 8,2 19,5 24,9 6,3 48,14 95,23 47,9 92,21 101,25 8,5 21,5 29,0 8,-5 22,-2 36,7 12,8 38,15 57,16 19,1 33,5 30,10 -2,4 6,7 19,7 13,1 45,7 73,14 27,7 59,12 70,12 11,-1 23,3 27,8 3,5 22,10 41,10 19,1 33,4 31,8 -5,8 97,31 104,23 3,-3 -3,-5 -12,-5 -12,0 -16,-5 -12,-15 7,-18 -5,-20 -22,-3 -9,9 -12,9 -12,1 0,-7 -25,-20 -55,-29 -64,-21 -67,-31 -4,-14 24,7 52,14 62,16 10,2 26,5 35,8 9,3 33,8 52,11 19,3 67,15 105,27 39,12 79,22 90,24 11,1 20,3 20,4 0,1 13,4 29,6 16,3 43,12 60,19 44,21 131,85 114,85 -7,0 -35,-18 -63,-41 -37,-31 -54,-39 -73,-34 -16,4 -21,2 -17,-6 6,-8 2,-8 -14,0 -16,9 -19,9 -16,-1 4,-9 -5,-13 -29,-13 -38,0 -62,14 -28,16 28,2 24,1 97,28 11,5 47,22 80,39 l 60,30 37,-41 c 21,-23 36,-49 35,-57 z m -2067,-36 c 0,4 6,4 13,-1 6,-4 23,-8 37,-8 14,-1 41,-5 60,-10 19,-4 49,-9 65,-10 49,-4 140,-15 164,-20 12,-2 60,-39 106,-81 l 85,-77 -38,-19 c -20,-10 -49,-26 -65,-34 -15,-8 -33,-12 -40,-7 -6,4 -25,8 -42,9 -16,2 -48,5 -70,9 -22,4 -53,8 -70,11 -53,7 -90,21 -88,33 2,6 -2,11 -8,11 -5,0 -8,4 -5,9 4,5 2,11 -4,13 -5,1 -11,17 -12,33 -2,22 -16,42 -48,70 -70,63 -100,95 -100,107 0,7 14,-1 30,-17 17,-16 30,-25 30,-21 z m 4190,-114 c 9,-6 20,-5 29,3 12,10 14,9 8,-7 -6,-15 -5,-17 6,-7 11,8 18,6 32,-9 10,-11 16,-22 14,-24 -9,-8 -213,-56 -217,-51 -3,3 -11,0 -18,-5 -6,-6 -16,-10 -20,-8 -5,1 -27,-2 -49,-6 -22,-4 -55,-9 -74,-11 -18,-2 -41,-7 -51,-10 -12,-4 -32,6 -57,27 -21,18 -40,34 -43,36 -9,6 25,22 39,17 7,-3 20,0 27,6 8,6 14,7 14,2 0,-11 26,-10 53,2 10,4 21,5 24,1 3,-3 13,0 21,7 13,10 15,9 8,-8 -6,-17 -4,-17 18,4 16,15 26,19 26,12 0,-11 3,-11 15,-1 9,7 18,10 22,7 3,-4 13,-1 21,6 12,10 16,9 20,-1 3,-10 8,-9 23,4 13,12 19,13 19,4 0,-10 3,-10 15,0 8,6 19,9 24,6 5,-4 12,-2 16,4 8,12 16,12 35,0 z m -4137,-85 c -5,-16 -50,-43 -81,-50 -10,-3 -53,-14 -97,-25 -44,-11 -93,-23 -110,-26 -16,-3 -46,-9 -65,-14 -19,-5 -62,-12 -95,-16 -33,-3 -63,-8 -67,-10 -4,-3 -9,0 -12,5 -3,5 5,12 19,15 14,4 49,17 78,31 30,13 65,26 80,29 14,2 66,14 114,25 247,58 245,58 236,36 z m 5232,-448 c 143,-46 286,-92 318,-102 32,-9 56,-19 54,-21 -9,-9 -631,41 -648,52 -6,3 -56,8 -111,10 -98,4 -118,8 -106,19 10,11 98,7 112,-4 8,-7 22,-8 36,-3 22,8 22,9 -6,20 -41,16 -75,20 -194,27 -102,5 -202,18 -285,36 -28,6 -17,7 40,2 44,-3 157,-11 250,-18 163,-11 173,-14 248,-48 88,-42 111,-47 77,-17 -13,11 -27,20 -32,20 -4,0 -57,22 -116,50 -183,85 -177,81 -180,121 l -3,37 143,-48 c 79,-27 260,-86 403,-133 z M 3640,1848 c 0,-5 10,-8 23,-7 12,1 37,-1 56,-5 20,-5 36,-4 40,2 9,15 30,17 88,9 44,-6 55,-12 68,-36 8,-16 12,-31 8,-34 -3,-4 7,-11 23,-17 26,-10 27,-12 11,-22 -10,-5 -25,-7 -34,-4 -27,11 -33,-5 -12,-33 15,-20 33,-31 61,-35 37,-6 88,-43 88,-65 0,-5 -10,-12 -22,-14 -17,-3 -15,-5 9,-6 36,-1 50,13 33,34 -9,11 -8,14 8,12 16,-1 18,-6 12,-27 -7,-26 -7,-26 26,-16 34,11 34,11 13,27 -13,10 -19,21 -14,28 5,9 -2,11 -28,6 -24,-5 -41,-2 -52,7 -30,24 -75,72 -75,80 0,17 23,7 52,-22 16,-16 35,-30 43,-30 14,0 80,-25 108,-41 10,-5 22,-7 26,-4 5,2 8,-3 7,-13 0,-9 -10,-21 -21,-27 -15,-7 -1,-10 60,-15 76,-5 105,-3 78,7 -7,3 -13,11 -13,19 0,12 4,12 21,4 11,-7 18,-14 15,-17 -7,-7 20,-33 35,-33 7,0 10,-3 6,-6 -3,-4 4,-15 16,-25 18,-15 19,-18 6,-19 -9,0 -19,-6 -22,-14 -4,-10 -18,-13 -49,-10 -51,5 -73,12 -65,21 7,6 -42,53 -55,53 -14,0 0,-31 20,-46 30,-21 28,-40 -3,-20 -31,20 -41,21 -25,1 7,-8 18,-15 25,-15 6,0 20,-9 29,-19 9,-10 28,-21 42,-24 20,-3 23,-1 19,14 -5,16 -2,17 24,9 41,-12 56,-22 57,-42 2,-26 -13,-22 -20,5 -5,18 -8,19 -15,7 -7,-10 -6,-17 2,-23 7,-5 2,-6 -13,-2 -14,3 -41,9 -60,11 -36,5 -67,24 -39,24 23,0 -64,49 -88,50 -12,0 -25,5 -28,10 -3,6 -15,10 -27,10 -15,0 -18,-3 -10,-12 12,-15 12,-88 0,-88 -17,0 -68,31 -68,40 0,6 8,11 18,11 16,1 16,2 0,6 -24,6 -23,23 2,23 11,0 20,4 20,10 0,13 -36,31 -45,22 -5,-4 -5,-2 -2,4 6,11 -12,24 -33,24 -14,0 -4,-32 13,-45 32,-23 17,-26 -20,-4 l -38,23 20,-23 20,-23 -28,13 c -32,14 -35,29 -7,36 11,3 20,10 20,15 0,6 -6,8 -13,5 -8,-3 -24,8 -37,24 -14,15 -27,24 -30,19 -4,-6 -15,-3 -27,5 -27,19 -30,75 -4,70 9,-2 21,-4 26,-4 6,-1 16,-10 22,-20 12,-19 11,-19 -18,-9 -37,13 -52,2 -16,-11 15,-6 36,-20 47,-31 12,-12 25,-19 28,-15 4,3 1,10 -7,14 -7,5 -11,17 -9,29 4,24 -28,62 -53,62 -10,0 -23,9 -29,21 -7,11 -17,18 -25,16 -7,-3 -39,18 -71,46 -32,29 -55,44 -51,35 8,-21 -12,-20 -31,2 -12,13 -13,13 -8,-2 4,-12 1,-15 -11,-11 -11,4 -14,2 -9,-5 14,-23 -55,-13 -85,12 l -28,24 37,-3 c 20,-1 44,-5 53,-9 10,-4 19,-2 22,7 3,9 0,14 -10,13 -8,0 -22,9 -30,21 -13,20 -13,21 6,16 12,-3 21,-10 21,-15 z m 323,-54 c 22,-23 34,-26 146,-34 67,-5 127,-13 134,-17 6,-3 38,-7 72,-8 48,-1 65,-5 83,-23 l 22,-22 h -28 c -15,0 -33,5 -40,12 -9,9 -12,9 -12,1 0,-7 9,-14 19,-18 11,-3 22,-13 25,-21 5,-12 1,-14 -15,-9 -20,7 -20,6 -4,-19 l 18,-27 -29,11 c -16,6 -35,18 -41,27 -7,9 -13,12 -13,5 0,-18 -63,-2 -78,20 -19,26 -71,51 -90,42 -32,-14 -77,-12 -94,3 -10,9 -15,20 -12,24 3,5 -5,9 -18,9 -21,0 -84,39 -64,40 5,0 3,7 -4,15 -21,25 -2,17 23,-11 z m -416,-45 c 22,10 29,9 49,-10 29,-27 31,-48 5,-46 -12,1 -22,11 -26,24 -3,13 -11,23 -17,23 -9,0 -9,-3 0,-12 21,-21 13,-28 -30,-28 l -43,-1 28,-24 c 16,-14 33,-23 38,-20 5,3 6,-2 2,-11 -4,-12 -3,-15 5,-10 15,9 16,46 0,46 -6,0 -9,2 -7,5 5,5 66,-15 87,-29 9,-5 11,-17 8,-32 -5,-17 -2,-24 9,-24 8,0 15,-4 15,-10 0,-5 6,-10 13,-10 6,1 2,9 -11,20 l -23,19 38,6 c 21,4 51,11 66,16 34,10 57,0 104,-43 17,-17 35,-28 40,-25 5,3 14,-3 21,-14 11,-16 9,-19 -8,-19 -18,0 -16,-4 11,-28 26,-23 29,-30 16,-35 -9,-3 -27,5 -43,20 -15,14 -42,32 -60,39 -18,8 -35,18 -39,24 -8,12 -35,13 -35,1 0,-5 14,-14 30,-20 40,-14 40,-32 -1,-21 -16,5 -37,6 -46,3 -10,-4 -23,3 -34,18 -10,13 -19,20 -18,14 0,-5 6,-19 14,-29 8,-10 12,-23 9,-28 -3,-5 0,-7 7,-6 7,2 15,-5 17,-14 3,-15 -4,-18 -34,-18 -36,0 -46,8 -95,68 -5,6 -17,12 -26,12 -14,0 -14,-2 3,-15 17,-13 18,-14 1,-15 -10,0 -20,7 -23,15 -4,8 -10,15 -16,15 -5,0 -6,-4 -3,-10 3,-5 1,-10 -4,-10 -6,0 -11,-7 -11,-15 0,-8 9,-15 19,-15 11,0 27,-3 37,-7 12,-4 15,-3 10,5 -15,25 16,11 41,-18 13,-17 29,-28 33,-25 12,8 110,-15 110,-26 0,-12 -17,-12 -25,1 -3,6 -18,10 -33,9 l -27,-1 26,-11 c 14,-7 24,-18 22,-25 -3,-6 -10,-9 -15,-6 -7,5 -8,2 -4,-5 5,-7 14,-10 22,-7 9,3 11,0 7,-11 -4,-9 -2,-14 3,-11 5,3 15,0 22,-8 11,-12 9,-14 -7,-14 -12,0 -41,22 -68,50 -37,39 -53,50 -74,48 -20,-2 -34,6 -50,26 -16,20 -24,24 -30,15 -6,-10 -11,-10 -22,-1 -8,7 -19,12 -23,10 -17,-5 -74,27 -74,41 0,10 11,12 45,9 l 45,-6 -24,23 c -14,13 -23,25 -20,27 2,3 -5,13 -17,24 -21,19 -21,19 -16,-14 3,-17 1,-32 -4,-32 -5,0 -9,4 -9,9 0,5 -7,17 -17,26 -13,14 -14,18 -2,25 7,5 11,11 8,15 -3,3 -40,-13 -81,-35 -42,-22 -83,-40 -92,-40 -9,0 -26,-10 -38,-22 l -23,-23 -9,28 c -6,15 -16,27 -23,27 -7,0 -13,6 -14,13 0,6 -4,3 -9,-8 -12,-28 -12,-29 10,-53 25,-26 42,-24 95,10 44,28 125,47 125,29 0,-6 -6,-8 -13,-5 -8,3 -20,-2 -27,-11 -11,-13 -15,-13 -21,-3 -7,10 -9,10 -9,1 0,-7 -12,-13 -26,-13 -14,0 -23,-4 -19,-10 3,-5 17,-10 31,-10 13,0 24,-5 24,-11 0,-7 -9,-9 -22,-6 -12,4 -28,1 -36,-5 -19,-16 -44,-19 -58,-7 -7,5 -25,7 -41,4 -19,-5 -24,-4 -14,3 10,7 10,11 1,17 -6,4 -17,2 -23,-4 -6,-6 -16,-11 -21,-11 -6,0 -4,5 4,11 12,8 9,10 -13,6 -20,-3 -25,-1 -17,8 5,6 23,10 41,7 22,-3 30,-1 25,7 -4,6 -15,11 -24,12 -11,0 -12,2 -4,6 6,2 10,8 7,12 -2,5 1,16 9,26 10,14 16,15 34,6 18,-10 21,-9 16,4 -5,13 -2,15 18,10 17,-4 50,7 113,38 50,24 101,49 115,55 14,6 19,11 13,11 -7,1 -13,8 -13,16 0,12 4,13 19,5 11,-5 30,-10 43,-10 l 23,1 -22,18 c -28,24 -20,32 19,19 21,-8 37,-7 55,1 z m 1231,-38 c 34,-4 62,-5 62,-1 0,4 14,5 30,2 17,-2 30,-8 30,-13 0,-5 -12,-7 -27,-4 -20,4 -15,0 16,-15 24,-12 46,-30 48,-41 3,-10 12,-19 19,-19 8,0 14,-7 14,-15 0,-8 -6,-12 -14,-9 -8,3 -17,1 -21,-5 -4,-7 5,-11 23,-11 29,0 58,-21 45,-33 -3,-4 10,-13 30,-22 45,-19 51,-29 31,-50 -15,-15 -19,-14 -43,9 -15,14 -31,26 -36,26 -5,0 5,-13 23,-29 38,-35 46,-88 12,-77 -11,3 -29,9 -40,12 -11,4 -20,2 -20,-3 0,-14 71,-33 98,-27 24,7 29,20 10,26 -6,2 -8,10 -4,16 5,9 14,8 37,-3 16,-9 29,-12 29,-8 0,5 4,1 10,-7 5,-9 5,-19 -2,-27 -8,-10 -4,-13 21,-13 24,0 34,-6 46,-30 8,-16 15,-31 15,-34 0,-10 -46,9 -60,26 -10,12 -20,15 -29,9 -11,-7 -10,-14 5,-40 10,-17 22,-31 27,-31 5,0 7,-6 4,-14 -3,-8 2,-16 13,-19 13,-3 17,0 13,9 -4,11 0,12 18,6 32,-12 35,-30 8,-40 -22,-9 -22,-9 9,-25 30,-14 32,-14 32,1 0,14 2,15 9,2 6,-8 8,-17 5,-21 -2,-4 5,-14 16,-22 18,-13 19,-16 5,-27 -23,-19 -65,5 -65,38 0,18 -4,23 -16,18 -8,-3 -12,-2 -9,4 3,5 -9,6 -30,3 -25,-4 -35,-2 -35,7 0,7 -3,10 -7,7 -3,-4 -13,-1 -21,6 -13,10 -15,9 -9,-6 5,-13 3,-17 -5,-14 -7,2 -12,14 -12,25 1,12 -4,22 -11,22 -20,0 -39,27 -23,33 10,3 8,10 -6,26 -19,21 -19,21 0,23 10,0 27,1 37,0 9,-1 17,4 17,12 0,15 -48,28 -56,15 -11,-19 -95,-4 -88,16 3,7 0,16 -5,20 -6,3 -9,11 -6,16 3,5 -1,6 -9,3 -8,-3 -12,-12 -9,-20 4,-12 0,-14 -23,-8 -27,7 -28,6 -12,-9 9,-9 21,-17 27,-17 11,0 51,-57 51,-73 0,-5 -7,-1 -16,7 -25,26 -65,17 -43,-10 8,-9 5,-11 -10,-7 -12,3 -21,1 -21,-6 0,-18 -36,-12 -55,9 -10,11 -16,21 -14,23 2,1 16,9 32,17 16,8 24,17 18,23 -5,5 -18,4 -31,-3 -24,-13 -23,-14 -39,17 -15,30 -56,40 -76,20 -23,-23 -18,-37 13,-37 15,0 23,4 17,8 -16,11 -16,32 -1,32 7,0 19,-7 26,-15 11,-13 10,-14 -3,-9 -12,4 -15,1 -12,-16 3,-18 1,-20 -17,-14 -17,5 -20,3 -15,-10 5,-12 0,-16 -23,-16 -21,0 -42,11 -68,35 l -37,34 35,1 c 34,1 91,30 59,30 -12,0 -12,2 1,11 13,9 13,10 0,6 -8,-2 -14,-10 -12,-16 4,-21 -15,-11 -26,14 -11,24 -10,24 21,19 42,-7 137,-54 134,-67 -1,-5 5,-12 13,-14 13,-4 13,-3 0,7 -12,9 -7,10 20,4 l 35,-6 -19,21 c -15,16 -16,20 -5,16 9,-3 22,1 29,10 7,8 22,15 34,15 17,1 14,5 -15,20 -19,10 -41,26 -48,34 -8,9 -18,16 -23,16 -6,0 -5,-6 2,-15 10,-12 7,-15 -15,-21 -14,-3 -29,-4 -32,0 -4,3 1,6 10,6 9,0 17,4 17,9 0,4 -11,7 -25,6 -14,-2 -27,1 -31,6 -3,5 -11,9 -17,9 -7,0 -6,-4 3,-11 12,-8 12,-12 2,-16 -23,-9 8,-33 44,-33 19,0 34,-4 34,-9 0,-5 3,-16 6,-25 5,-14 0,-13 -36,3 -23,10 -48,28 -56,40 -9,12 -25,21 -37,20 -41,-4 -57,1 -57,17 0,11 -6,14 -20,9 -18,-6 -25,3 -21,28 0,4 -6,7 -14,7 -19,0 -19,-15 1,-45 9,-14 12,-25 6,-25 -6,0 -14,4 -17,10 -3,5 -19,7 -34,4 -16,-4 -32,-1 -35,5 -11,16 -26,13 -20,-4 8,-20 -2,-19 -36,5 -18,13 -35,17 -46,13 -16,-6 -17,-5 -4,8 10,11 30,15 68,13 51,-2 53,-1 36,17 -9,11 -13,19 -8,20 5,0 -1,4 -13,9 -13,5 -23,14 -23,20 0,6 4,9 9,6 5,-3 14,0 20,8 10,12 5,15 -26,21 -46,7 -76,41 -36,39 14,0 29,-7 34,-15 8,-12 11,-12 22,1 13,16 65,15 82,-1 5,-5 24,-9 42,-9 18,0 33,-4 33,-10 0,-5 7,-10 17,-10 15,0 15,1 0,18 -10,10 -17,25 -17,33 0,8 8,2 18,-13 9,-16 23,-28 32,-29 10,0 11,-2 2,-6 -18,-7 -4,-23 20,-23 14,0 18,5 14,15 -3,8 -1,15 5,15 6,0 7,5 4,10 -8,13 1,13 25,-2 24,-15 37,-4 20,17 -12,14 -10,15 15,9 16,-4 38,-16 50,-26 17,-16 18,-20 5,-28 -13,-8 -12,-10 3,-10 9,0 17,5 17,11 0,7 12,0 26,-14 15,-15 24,-33 21,-41 -4,-10 -1,-13 9,-9 7,3 14,13 14,23 0,14 6,17 23,13 18,-4 19,-3 7,6 -8,6 -24,11 -35,11 -22,0 -45,17 -45,33 0,4 4,6 9,2 12,-7 33,29 24,39 -3,3 -17,6 -30,6 -12,0 -28,9 -35,20 -15,24 -30,27 -21,5 5,-13 -3,-15 -52,-10 -32,3 -61,8 -64,11 -3,4 8,4 25,1 28,-5 31,-4 27,13 -3,11 -10,20 -15,20 -5,0 -6,-4 -3,-10 4,-6 -7,-10 -25,-10 -18,0 -29,-4 -25,-10 3,-5 1,-10 -5,-10 -6,0 -9,-8 -6,-18 7,-22 -20,-27 -28,-5 -3,7 -1,13 5,13 5,0 1,10 -11,22 -21,23 -27,44 -10,33 6,-3 10,1 10,9 0,11 7,14 28,10 15,-2 55,-8 90,-13 z M 2880,1479 c 0,-5 5,-7 10,-4 6,3 10,-1 10,-9 0,-8 -9,-18 -20,-21 -11,-4 -18,-11 -15,-16 6,-10 40,-7 51,4 13,12 34,7 34,-8 0,-15 -16,-20 -55,-17 -15,2 -17,0 -6,-7 11,-7 10,-10 -5,-14 -13,-4 -11,-5 6,-4 14,1 26,-2 27,-8 1,-5 -12,-11 -28,-12 -16,-2 -29,2 -29,7 0,7 -7,7 -21,0 -17,-10 -21,-8 -26,10 -5,17 -12,21 -42,19 -20,-2 -46,3 -57,9 -21,11 -34,7 -34,-10 0,-5 4,-7 9,-4 5,3 11,0 14,-7 3,-9 16,-12 38,-9 21,3 36,0 43,-10 22,-30 135,-45 172,-23 13,8 26,10 36,4 10,-5 26,-5 40,0 23,9 23,9 -7,17 -16,4 -36,7 -44,5 -7,-1 -10,2 -6,8 3,6 22,11 41,11 19,0 34,4 34,9 0,5 8,7 19,4 13,-3 20,2 24,17 5,19 11,21 44,18 22,-3 48,-10 59,-16 17,-10 16,-12 -11,-13 -38,-2 -36,-2 -58,7 -14,5 -18,3 -15,-12 2,-13 -2,-18 -15,-16 -9,2 -24,-1 -33,-6 -14,-8 -11,-11 16,-20 33,-12 33,-32 -1,-32 -10,0 -19,-4 -19,-9 0,-5 -3,-18 -6,-28 -6,-16 -5,-16 9,2 10,12 16,15 17,7 0,-7 5,-10 10,-7 6,3 10,2 10,-4 0,-5 -8,-12 -17,-14 -11,-3 -6,-5 12,-6 22,-2 10,-7 -43,-21 -40,-11 -79,-17 -87,-14 -8,4 -15,1 -15,-5 0,-6 7,-11 15,-11 13,0 35,-28 35,-45 0,-3 -26,-4 -57,-2 -32,2 -50,2 -40,0 9,-3 17,-9 17,-15 0,-6 -10,-8 -25,-4 -14,4 -25,2 -25,-4 0,-5 -5,-10 -11,-10 -7,0 -8,7 -4,18 4,9 7,24 7,33 0,11 5,15 17,12 10,-2 23,3 30,11 12,14 9,16 -28,16 -35,0 -43,4 -51,26 -7,19 -15,24 -28,20 -12,-4 -11,-1 6,13 23,20 29,41 12,41 -5,0 -10,-3 -10,-8 0,-4 -18,-6 -39,-4 -32,3 -41,0 -51,-18 -17,-31 -64,-24 -68,11 -2,18 3,29 20,37 23,12 23,12 -4,7 -14,-3 -34,-8 -44,-12 -12,-4 -15,-3 -10,5 4,7 16,12 27,12 23,0 25,16 3,28 -14,8 -11,11 15,20 38,14 41,26 4,18 -24,-5 -25,-5 -9,5 14,8 24,8 41,-1 16,-9 41,-10 82,-5 32,5 62,7 67,6 5,-1 6,8 3,19 -5,18 -3,19 10,8 14,-11 15,-10 9,10 -5,13 -3,22 3,22 6,0 11,-5 11,-11 z m -1012,-22 c 10,-8 16,-7 20,1 9,14 72,13 72,-2 0,-7 3,-7 8,1 6,9 11,7 20,-7 10,-17 8,-20 -25,-26 -25,-5 -38,-3 -41,5 -6,17 -52,14 -52,-5 0,-10 6,-13 18,-10 9,3 23,2 31,-3 11,-7 10,-13 -4,-35 -10,-14 -13,-26 -9,-27 48,-4 66,-4 70,3 3,4 -6,8 -20,8 -28,0 -31,6 -16,30 8,12 13,13 29,3 17,-11 19,-10 16,7 -5,24 17,27 35,5 7,-9 19,-14 27,-11 8,3 11,1 8,-4 -3,-6 -17,-10 -30,-10 -13,0 -27,-5 -31,-11 -4,-8 3,-9 25,-4 33,7 41,-4 17,-24 -11,-9 -15,-9 -18,0 -3,8 -11,10 -22,6 -11,-4 -16,-13 -12,-22 6,-17 -19,-21 -29,-5 -3,6 -14,9 -23,9 -16,-1 -16,-2 0,-6 9,-2 19,-10 21,-17 7,-17 -19,-56 -36,-56 -18,0 -38,-37 -30,-57 5,-14 0,-12 -27,7 -19,14 -35,19 -37,13 -2,-5 -10,-19 -18,-29 -14,-19 -14,-19 -15,1 0,15 -3,16 -12,7 -20,-20 -32,-13 -13,8 16,17 16,20 2,20 -9,0 -23,-10 -33,-22 -11,-16 -15,-17 -11,-5 5,13 1,17 -20,17 -16,0 -23,4 -17,9 13,12 125,20 117,8 -3,-5 4,-4 16,2 16,9 21,9 21,-1 1,-8 7,-5 17,7 l 16,20 -7,-20 c -5,-13 -4,-16 2,-10 6,6 12,29 14,53 3,40 2,42 -24,42 -15,0 -30,-5 -34,-11 -3,-6 -15,-9 -25,-6 -11,3 -20,1 -20,-4 -1,-5 -2,-15 -3,-21 -1,-12 -8,-14 -36,-9 -19,2 -10,21 10,21 11,0 20,5 20,11 0,7 -10,9 -27,4 -37,-9 -39,-12 -19,-34 17,-18 16,-19 -3,-26 -12,-3 -25,-3 -31,0 -5,3 -10,-1 -10,-9 0,-9 -8,-17 -17,-17 -17,-1 -17,-2 0,-6 9,-2 17,-9 17,-15 0,-5 -7,-7 -16,-4 -12,4 -15,2 -10,-9 4,-11 -1,-15 -17,-14 -12,0 -16,3 -9,6 6,2 9,9 6,14 -3,6 2,19 11,29 9,10 15,26 13,36 -4,22 -28,31 -28,10 0,-18 -6,-22 -47,-31 -29,-6 -33,-4 -39,19 -3,14 -13,26 -22,28 -15,3 -15,4 1,11 14,5 20,2 24,-13 l 6,-21 19,21 c 13,14 28,20 42,16 12,-3 28,-1 36,4 12,8 12,10 1,10 -7,0 -11,6 -8,14 4,10 1,13 -9,9 -8,-3 -13,-11 -10,-18 3,-8 -2,-11 -15,-8 -10,3 -16,9 -13,14 6,10 -32,6 -42,-4 -14,-14 -24,-6 -20,16 2,12 9,21 15,20 6,-2 11,8 11,22 0,18 -4,23 -15,19 -8,-4 -23,-3 -32,0 -12,5 -14,9 -5,18 15,15 16,38 1,38 -5,0 -8,-3 -6,-7 3,-5 -14,-8 -38,-8 -24,0 -41,3 -38,8 2,4 20,7 39,7 25,0 33,4 28,12 -4,7 10,2 31,-11 26,-15 46,-20 64,-16 20,5 22,8 10,16 -7,5 -9,9 -3,9 21,0 24,-14 7,-32 -10,-11 -12,-18 -4,-18 8,0 6,-8 -4,-24 -19,-28 -11,-37 41,-42 36,-3 40,2 23,26 -8,11 -12,12 -16,3 -6,-16 -33,-17 -33,-3 0,6 6,13 14,16 8,3 12,12 9,20 -10,27 21,10 36,-19 12,-24 16,-26 23,-13 5,9 15,13 26,9 24,-9 12,3 -23,21 l -29,15 25,10 c 23,9 22,10 -11,12 -19,1 -38,1 -42,0 -4,0 -5,6 -2,14 7,17 59,21 69,5 4,-6 10,-8 15,-5 4,3 7,-3 6,-12 0,-10 4,-18 11,-18 6,0 15,-4 20,-9 5,-5 3,-6 -4,-2 -7,4 -13,4 -13,0 0,-10 41,-44 54,-44 6,0 5,-4 -3,-9 -11,-7 -10,-10 5,-14 50,-15 94,-19 94,-8 0,6 -18,11 -42,11 -39,0 -40,1 -22,15 18,13 18,14 1,15 -10,0 -27,5 -38,11 -20,10 -20,11 -3,30 13,15 25,18 48,13 30,-6 30,-5 11,10 -13,10 -31,13 -53,10 -27,-5 -31,-4 -26,10 5,13 15,15 48,10 22,-4 47,-11 54,-17 z m 2133,-33 c 14,-46 29,-59 29,-24 0,23 17,25 44,5 11,-8 28,-15 39,-15 10,0 16,-4 13,-8 -3,-5 8,-23 23,-40 16,-17 26,-33 23,-36 -3,-3 9,-6 26,-6 19,0 40,-8 53,-21 28,-28 15,-38 -14,-11 -31,29 -41,28 -21,-3 9,-14 14,-28 11,-32 -8,-7 -66,15 -92,36 -18,15 -19,15 -6,-1 18,-24 11,-23 -25,5 -42,32 -40,53 5,50 l 36,-3 -35,11 c -19,6 -42,17 -51,25 -8,8 -22,14 -30,13 -10,0 -10,-2 -1,-6 6,-2 12,-11 12,-19 0,-8 6,-14 13,-15 6,0 0,-5 -15,-11 -23,-8 -33,-6 -58,12 -16,12 -30,26 -30,32 0,6 -11,26 -26,45 l -25,33 h 23 c 17,0 19,3 9,9 -11,7 -10,11 4,19 31,17 53,2 66,-44 z m -477,17 c 11,-9 16,-10 12,-3 -4,6 -3,12 2,12 6,0 13,-7 16,-16 4,-9 9,-14 13,-10 3,3 13,-3 20,-14 13,-18 16,-18 29,-5 12,12 19,12 34,2 11,-6 20,-16 20,-21 0,-4 -7,-2 -16,5 -14,11 -18,11 -28,-2 -11,-16 -17,-19 -36,-19 -5,0 -10,-4 -10,-8 0,-4 23,-7 50,-7 28,0 50,-3 50,-7 0,-4 8,-8 18,-8 20,-1 81,-32 82,-42 0,-5 0,-12 0,-18 0,-5 5,-10 12,-10 6,0 8,3 5,7 -4,3 1,12 11,20 9,7 13,12 7,11 -6,-2 -12,2 -14,7 -5,13 38,35 55,28 21,-8 17,-24 -6,-30 -21,-6 -21,-6 1,-21 17,-11 18,-16 8,-23 -8,-5 -23,-6 -34,-3 -16,4 -17,3 -5,-5 8,-6 22,-11 31,-11 9,0 24,-8 33,-19 16,-18 16,-19 -11,-24 -19,-4 -32,-1 -40,11 -12,14 -13,14 -13,-2 0,-10 12,-21 30,-28 26,-9 50,-34 50,-52 0,-10 -39,-6 -45,4 -3,6 -15,10 -25,10 -20,0 -42,30 -39,53 2,22 -13,57 -26,57 -7,0 -18,7 -25,15 -7,8 -21,15 -31,15 -12,0 -19,7 -19,19 0,11 -4,23 -10,26 -5,3 -10,-1 -10,-9 0,-9 -4,-16 -10,-16 -5,0 -10,6 -10,14 0,7 -9,16 -20,19 -13,3 -20,0 -20,-9 0,-8 -6,-11 -15,-8 -8,4 -15,1 -15,-5 0,-6 -11,-11 -25,-11 -18,0 -25,5 -25,19 0,10 -8,22 -17,25 -15,6 -15,8 -3,16 11,7 19,5 28,-7 11,-15 12,-15 12,5 0,13 -6,22 -14,22 -8,0 -22,10 -30,21 -8,13 -21,19 -29,16 -20,-8 -52,17 -43,32 10,15 64,5 90,-18 z m -960,-112 c 4,-4 5,-12 1,-19 -6,-9 2,-11 32,-5 32,5 42,3 46,-9 4,-9 2,-16 -2,-16 -5,0 -11,5 -13,11 -5,14 -35,1 -42,-17 -4,-10 0,-15 12,-13 23,2 82,-21 82,-33 0,-5 -6,-6 -12,-3 -7,4 -4,-1 6,-9 32,-26 -2,-18 -42,9 -20,14 -49,25 -63,25 -18,0 -28,6 -32,20 -3,11 -1,20 4,20 5,0 9,4 9,10 0,6 -9,6 -26,0 -36,-14 -36,-13 -19,21 9,17 15,33 12,35 -2,2 -10,-8 -17,-24 -8,-15 -16,-29 -17,-31 -2,-3 -10,4 -18,15 -14,18 -14,18 -15,-9 0,-16 4,-26 9,-22 6,3 15,-3 21,-12 8,-13 13,-14 16,-5 9,20 27,14 21,-8 -3,-11 0,-20 6,-21 7,-1 19,-2 27,-3 8,-2 27,-3 43,-4 32,-2 35,-17 6,-32 -16,-9 -25,-8 -39,5 -12,11 -30,16 -48,13 -23,-3 -28,-1 -25,12 6,22 -25,49 -36,31 -5,-7 -19,-10 -36,-7 -39,7 -44,16 -9,16 26,1 27,2 12,14 -21,16 -23,36 -4,36 7,0 20,8 27,18 13,15 12,16 -3,3 -10,-7 -18,-9 -18,-3 0,10 23,22 41,22 5,0 9,-8 10,-17 0,-15 2,-15 9,2 5,11 9,16 9,12 1,-5 11,-1 24,8 21,14 23,14 32,-7 5,-13 14,-26 19,-29 z m 920,-15 c 5,-13 17,-16 61,-12 30,3 55,1 55,-4 0,-4 21,-8 46,-8 25,0 43,-4 40,-9 -4,-5 2,-7 11,-5 17,5 99,-53 90,-63 -3,-2 -22,8 -43,22 -38,26 -38,26 -46,5 -11,-30 -32,-34 -96,-21 -130,28 -132,29 -132,61 0,17 -4,30 -10,30 -5,0 -10,5 -10,10 0,16 27,11 34,-6 z m 1426,-98 c 19,0 42,2 50,4 9,3 16,-3 18,-18 3,-19 0,-23 -15,-19 -51,14 -73,17 -73,8 0,-5 7,-12 16,-15 8,-3 13,-10 9,-15 -3,-5 0,-13 6,-17 8,-5 9,-3 4,6 -5,9 -2,10 13,6 11,-4 30,-1 41,6 17,10 25,10 41,0 11,-6 24,-12 30,-12 12,0 50,-31 50,-41 0,-4 -10,-9 -21,-12 l -21,-6 22,-31 c 30,-42 64,-63 90,-55 23,7 28,-10 5,-19 -20,-7 -56,7 -79,33 -11,11 -25,21 -33,21 -7,0 -13,4 -13,10 0,5 -12,13 -27,16 -16,4 -34,11 -40,17 -9,6 -13,6 -13,-2 0,-8 -4,-8 -14,1 -14,14 -11,38 6,38 5,0 6,-4 3,-10 -3,-6 4,-10 16,-10 18,0 20,3 11,12 -8,8 -36,12 -75,11 -34,-1 -56,0 -49,3 6,3 12,10 12,15 0,6 -5,7 -12,3 -7,-4 -8,-3 -4,4 4,6 13,9 21,5 8,-3 15,1 15,8 0,7 -3,9 -7,6 -3,-4 -17,0 -29,8 -13,8 -29,12 -37,9 -8,-3 -18,-1 -22,5 -4,7 6,11 27,11 32,1 32,1 13,16 -19,16 -19,16 5,8 14,-5 41,-9 60,-8 z m 6,-125 c -3,-4 3,-16 14,-26 16,-14 17,-20 8,-27 -9,-5 -6,-8 8,-8 12,0 35,-7 50,-15 16,-8 25,-15 21,-15 -5,0 -2,-7 7,-15 8,-8 21,-15 30,-15 8,0 18,-4 21,-10 3,-5 -3,-10 -14,-10 -12,0 -21,-4 -21,-10 0,-5 -4,-10 -10,-10 -5,0 -10,9 -10,20 0,14 -7,20 -22,20 -13,0 -18,-4 -12,-8 12,-8 26,-42 17,-42 -4,0 -15,8 -25,17 -17,15 -21,15 -29,3 -8,-13 -10,-13 -19,0 -5,8 -10,21 -10,27 0,8 -10,11 -29,7 -16,-4 -32,-1 -35,5 -4,6 -12,11 -17,11 -6,0 -7,-4 -4,-10 10,-16 -11,-12 -25,5 -7,8 -18,15 -24,15 -12,1 -56,35 -56,44 0,9 53,-18 73,-37 13,-13 22,-15 31,-8 14,12 56,4 56,-11 0,-5 5,-6 10,-3 6,3 7,17 4,30 -3,12 -1,26 5,30 13,7 5,25 -10,25 -6,0 -8,-4 -5,-9 4,-5 -3,-7 -14,-4 -26,7 -25,17 3,31 28,13 40,15 33,3 z m -816,-83 c 0,-5 -6,-8 -12,-9 -7,-1 7,-6 32,-13 34,-9 46,-17 48,-34 3,-17 0,-21 -15,-16 -16,5 -16,4 1,-10 22,-18 46,-21 46,-6 0,6 -6,10 -12,10 -10,0 -10,2 0,9 9,5 29,0 55,-15 23,-13 50,-27 60,-30 9,-4 17,-12 17,-19 0,-17 -60,-17 -67,0 -2,7 -13,10 -24,8 -12,-3 -18,-11 -15,-19 6,-15 -9,-19 -18,-5 -3,5 -15,11 -26,14 -15,4 -20,1 -18,-11 2,-10 10,-20 18,-24 21,-9 88,-10 73,0 -6,4 12,7 40,7 63,-1 83,-10 66,-31 -12,-15 -50,-16 -89,-3 -14,5 -38,5 -55,1 -31,-9 -85,3 -85,19 0,5 -5,9 -10,9 -6,0 -20,9 -32,20 -12,11 -25,20 -30,20 -11,0 3,-33 20,-47 13,-11 13,-13 -1,-19 -10,-3 -27,-4 -40,-1 -12,4 -39,2 -61,-3 -45,-10 -76,4 -69,30 3,12 -5,21 -26,30 -41,16 -44,15 -45,-20 -1,-20 3,-29 11,-25 7,2 20,2 28,-1 31,-12 13,-21 -47,-23 -34,-1 -64,-2 -67,-3 -27,-2 -61,4 -61,11 0,5 12,13 26,18 25,8 26,10 10,26 -19,19 -46,23 -46,6 0,-5 5,-7 10,-4 6,3 10,2 10,-4 0,-23 -24,-22 -44,2 -26,31 -63,51 -71,37 -11,-17 -33,1 -37,31 -3,16 -1,29 4,29 5,0 32,-13 61,-30 58,-33 67,-35 67,-20 0,6 -8,10 -17,10 -9,0 -14,3 -10,6 10,10 47,-7 47,-22 0,-8 9,-14 19,-14 12,0 23,-11 30,-30 7,-23 16,-30 35,-30 16,0 26,6 26,15 0,8 -4,14 -9,12 -5,-1 -9,1 -10,6 -3,25 1,37 13,37 8,0 16,5 18,11 2,7 11,7 28,0 14,-5 21,-10 15,-10 -22,-2 44,-28 83,-33 33,-5 39,-3 29,7 -7,7 -16,10 -21,7 -5,-3 -6,0 -2,6 9,15 36,16 36,1 0,-8 4,-8 13,-1 6,6 26,12 42,14 17,2 29,8 28,15 -3,14 24,7 47,-13 9,-7 21,-10 28,-5 10,6 3,13 -22,25 -40,19 -49,37 -13,28 22,-5 22,-5 3,16 -24,27 -33,28 -41,2 -3,-11 -10,-20 -15,-20 -5,0 -6,7 -3,17 5,12 3,14 -7,8 -9,-5 -11,-4 -6,4 4,6 12,9 17,5 14,-9 6,41 -10,60 -12,15 -10,15 17,-1 18,-10 32,-21 32,-25 z"
       id="path78" />
    <path
       d="m 4040,3350 c 24,-7 23,-7 -10,-12 l -35,-4 25,-12 25,-12 -27,3 c -33,5 -38,-10 -5,-16 13,-3 7,-5 -18,-7 -35,-2 -37,-3 -15,-10 25,-8 25,-8 -5,-9 l -30,-2 25,-14 c 28,-16 10,-21 -19,-5 -14,7 -23,4 -41,-15 -12,-13 -19,-28 -15,-34 3,-6 -2,-11 -12,-12 -16,0 -16,-1 2,-10 16,-7 14,-8 -12,-5 -30,5 -61,-13 -46,-27 3,-4 -5,-7 -18,-7 -19,0 -21,-2 -9,-10 12,-8 11,-10 -7,-10 -12,0 -28,-7 -37,-15 -8,-8 -20,-15 -27,-15 -7,0 -9,-3 -6,-7 12,-11 -47,-35 -74,-29 -17,3 -26,1 -26,-9 0,-7 7,-11 15,-7 11,4 13,1 7,-8 -6,-10 -4,-12 10,-6 11,4 22,2 27,-6 6,-10 8,-10 8,2 0,10 3,11 8,4 4,-6 27,-14 52,-17 42,-5 43,-5 13,5 l -32,11 77,55 c 124,90 179,140 227,207 25,34 45,65 45,69 0,3 -15,6 -32,5 -31,-1 -31,-1 -8,-9 z"
       id="path80" />
    <path
       d="m 4099,3261 c -8,-9 -38,-43 -67,-76 -28,-33 -87,-87 -131,-120 -44,-33 -80,-62 -80,-65 -1,-3 23,-6 52,-7 28,-1 90,-9 137,-17 149,-27 373,-65 425,-72 28,-4 61,-11 74,-16 17,-6 1,16 -50,69 -41,43 -102,115 -136,159 -34,45 -69,84 -77,87 -9,4 -16,11 -16,17 0,6 5,8 12,4 6,-4 8,-3 5,3 -8,13 -42,10 -61,-6 -21,-18 -43,-8 -58,27 -12,27 -14,28 -29,13 z"
       id="path82" />
    <path
       d="m 5918,1570 c -5,-15 -53,-18 -87,-6 -16,6 -21,5 -17,-3 4,-6 16,-11 26,-11 11,0 30,-16 45,-37 29,-44 31,-53 8,-53 -14,0 -14,-3 -5,-12 10,-10 15,-10 21,1 6,9 16,11 32,6 12,-4 41,-7 64,-7 32,1 47,-5 73,-29 18,-16 32,-34 32,-38 0,-5 7,-11 15,-15 12,-4 13,-2 6,13 -6,10 -7,21 -4,25 3,3 2,6 -4,6 -5,0 -23,12 -39,26 -17,15 -22,24 -12,21 10,-4 20,-2 23,2 2,5 -4,11 -15,14 -11,3 -24,16 -29,30 -6,14 -21,27 -36,31 -22,6 -25,9 -15,21 10,12 8,15 -11,15 -13,0 -34,3 -45,6 -13,3 -23,1 -26,-6 z"
       id="path84" />
    <path
       d="m 6882,1018 c 4,-19 21,-29 29,-16 5,7 17,7 42,-1 38,-13 58,-41 29,-41 -14,0 -12,-4 7,-19 23,-18 23,-19 5,-24 -15,-3 -11,-6 14,-12 17,-4 32,-14 32,-21 0,-8 10,-15 23,-15 18,-1 17,-3 -8,-10 -25,-7 -23,-7 10,-3 22,3 57,6 77,7 43,1 42,6 -4,17 -26,6 -18,8 37,8 52,0 62,-2 40,-8 -34,-9 -33,-11 10,-15 17,-2 40,4 53,12 21,13 23,21 20,66 -2,34 -7,52 -16,51 -6,-1 -42,-2 -79,-2 -73,-2 -76,-15 -8,-31 34,-8 25,-9 -57,-9 -77,0 -98,3 -98,14 0,8 -7,14 -15,14 -21,0 -19,20 3,20 12,1 8,6 -12,16 -22,13 -30,13 -36,4 -7,-12 -27,-10 -83,6 -11,4 -17,1 -15,-8 z"
       id="path86" />
    <path
       d="m 938,674 c -7,-7 -100,-18 -158,-19 -36,0 -74,-5 -84,-9 -18,-9 -18,-10 5,-19 l 24,-10 -25,-7 -25,-8 26,-1 c 14,-1 31,-7 38,-13 11,-11 12,-10 7,0 -8,13 16,11 77,-8 15,-5 50,-6 77,-3 61,7 167,-14 191,-38 23,-23 33,-61 25,-94 -10,-40 -48,-58 -122,-57 -37,1 -62,-3 -59,-8 3,-5 12,-7 20,-3 8,3 15,1 15,-5 0,-19 85,-10 130,14 80,42 125,79 122,100 -2,10 -5,29 -6,41 -3,29 -69,103 -91,103 -9,0 -26,5 -38,12 -12,6 -29,13 -37,14 -8,1 -36,6 -62,12 -26,5 -49,8 -50,6 z"
       id="path88" />
    <path
       d="m 4386,195 c -82,-32 -90,-61 -13,-50 109,17 208,11 267,-16 51,-23 102,-26 101,-6 -1,4 -1,16 -1,27 0,34 -61,52 -195,56 -90,3 -130,0 -159,-11 z"
       id="path90" />
    <path
       d="m 1293,126 c -6,-8 -9,-23 -7,-33 3,-11 -1,-27 -9,-34 -8,-8 -18,-25 -21,-37 -7,-21 -5,-22 67,-22 h 75 l 4,54 c 5,83 3,86 -50,86 -27,-1 -52,-7 -59,-14 z"
       id="path92" />
    <path
       d="m 3422,121 c -10,-6 -9,-15 5,-42 10,-19 19,-35 20,-37 1,-2 13,4 27,13 14,10 32,15 40,12 8,-3 16,-2 18,4 2,5 14,11 26,14 13,2 31,7 40,9 22,7 181,16 306,17 55,1 109,5 120,9 12,5 -110,9 -284,9 -168,0 -311,-3 -318,-8 z"
       id="path94" />
    <path
       d="m 4879,98 c -13,-18 -29,-37 -36,-41 -7,-4 -13,-19 -13,-32 V 0 h 120 c 137,0 134,-4 58,79 -58,64 -94,69 -129,19 z"
       id="path96" />
  </g>
</svg>
